<svg viewBox="0 0 1200 140" xmlns:xlink="http://www.w3.org/1999/xlink" xmlns="http://www.w3.org/2000/svg">
<style>
.diag-py-rect {fill: rgba(241, 228, 194, 1.0); stroke: none;}
.diag-num-rect { fill: none; stroke: none; }
.diag-rem-rect { fill: none; stroke: none; }
.diag-num-line { stroke-width: 2; stroke: darkgray; }
.diag-num-path { stroke-width: 2; stroke: blue; fill: none; }
.diag-num-dot { stroke-width: 1; stroke: blue; fill: blue; }
.diag-num-elps { stroke-width: 3; stroke: red; fill: none; }
.diag-py { font-family: Courier, monospace; font-size: 1em; white-space: pre; dominant-baseline: middle; fill: black; }
.diag-num-bin { font-family: "Roboto Mono"; font-size: 1.2em; letter-spacing: 0.13em; dominant-baseline: middle; fill: black; }
.diag-num-oct { font-family: "Roboto Mono"; font-size: 1.2em; font-style: italic; letter-spacing: 0.13em; dominant-baseline: middle; fill: black; }
.diag-num-dec { font-family: "Roboto Mono"; font-size: 1.2em; font-weight: bolder; letter-spacing: 0.13em; dominant-baseline: middle; fill: black; }
.diag-num-hex { font-family: "Roboto Mono"; font-size: 1.2em; font-style: italic; font-weight: bolder; letter-spacing: 0.13em; dominant-baseline: middle; fill: black; }
.diag-rem { font-family: Arial; font-size: 1em; dominant-baseline: middle; fill: darkslategray; }
.tic-rect { fill: lightgray; stroke: none; }
.tic-line { stroke-width: 3; stroke: dimgray; }
.tic-big { stroke-width: 3; stroke: dimgray; }
.tic-small { stroke-width: 2; stroke: darkgray; }
.tic-hnum { stroke-width: 1; stroke: blue; }
.tic-mnum { stroke-width: 2; stroke: blue; }
.tic-bnum { stroke-width: 3; stroke: blue; }
.tic-lab { font-family: "Roboto Mono", monospace; font-size: 1.2em; white-space: pre; dominant-baseline: middle; fill: black; }
.tic-num { font-family: "Roboto Mono", monospace; font-size: 1.2em; font-weight: bolder;white-space: pre; dominant-baseline: middle; fill: blue; }
</style>
<!-- TIC LINE -->
<g transform="translate(80,0)">
<rect class="tic-rect" width="1040" height="140" />
<line class="tic-line" x1="0" y1="70" x2="1040" y2="70" />
<line class="tic-small" x1="120" y1="85" x2="120" y2="45" />
<line class="tic-small" x1="160" y1="85" x2="160" y2="45" />
<line class="tic-small" x1="200" y1="85" x2="200" y2="45" />
<line class="tic-small" x1="240" y1="85" x2="240" y2="45" />
<line class="tic-small" x1="280" y1="85" x2="280" y2="45" />
<line class="tic-small" x1="320" y1="85" x2="320" y2="45" />
<line class="tic-small" x1="360" y1="85" x2="360" y2="45" />
<line class="tic-small" x1="400" y1="85" x2="400" y2="45" />
<line class="tic-small" x1="440" y1="85" x2="440" y2="45" />
<line class="tic-small" x1="480" y1="85" x2="480" y2="45" />
<line class="tic-small" x1="520" y1="85" x2="520" y2="45" />
<line class="tic-small" x1="560" y1="85" x2="560" y2="45" />
<line class="tic-small" x1="600" y1="85" x2="600" y2="45" />
<line class="tic-small" x1="640" y1="85" x2="640" y2="45" />
<line class="tic-small" x1="680" y1="85" x2="680" y2="45" />
<line class="tic-small" x1="720" y1="85" x2="720" y2="45" />
<line class="tic-small" x1="760" y1="85" x2="760" y2="45" />
<line class="tic-small" x1="800" y1="85" x2="800" y2="45" />
<line class="tic-small" x1="840" y1="85" x2="840" y2="45" />
<line class="tic-small" x1="880" y1="85" x2="880" y2="45" />
<line class="tic-small" x1="120" y1="85" x2="120" y2="45" />
<line class="tic-small" x1="116" y1="85" x2="116" y2="45" />
<line class="tic-small" x1="112" y1="85" x2="112" y2="45" />
<line class="tic-small" x1="108" y1="85" x2="108" y2="45" />
<line class="tic-small" x1="104" y1="85" x2="104" y2="45" />
<line class="tic-small" x1="100" y1="85" x2="100" y2="45" />
<line class="tic-small" x1="96" y1="85" x2="96" y2="45" />
<line class="tic-small" x1="92" y1="85" x2="92" y2="45" />
<line class="tic-small" x1="88" y1="85" x2="88" y2="45" />
<line class="tic-small" x1="84" y1="85" x2="84" y2="45" />
<line class="tic-small" x1="80" y1="85" x2="80" y2="45" />
<line class="tic-small" x1="76" y1="85" x2="76" y2="45" />
<line class="tic-small" x1="72" y1="85" x2="72" y2="45" />
<line class="tic-small" x1="68" y1="85" x2="68" y2="45" />
<line class="tic-small" x1="64" y1="85" x2="64" y2="45" />
<line class="tic-small" x1="60" y1="85" x2="60" y2="45" />
<line class="tic-small" x1="56" y1="85" x2="56" y2="45" />
<line class="tic-small" x1="52" y1="85" x2="52" y2="45" />
<line class="tic-small" x1="48" y1="85" x2="48" y2="45" />
<line class="tic-small" x1="44" y1="85" x2="44" y2="45" />
<line class="tic-small" x1="40" y1="85" x2="40" y2="45" />
<line class="tic-small" x1="40" y1="85" x2="40" y2="45" />
<line class="tic-small" x1="40" y1="85" x2="40" y2="45" />
<line class="tic-small" x1="39" y1="85" x2="39" y2="45" />
<line class="tic-small" x1="39" y1="85" x2="39" y2="45" />
<line class="tic-small" x1="38" y1="85" x2="38" y2="45" />
<line class="tic-small" x1="38" y1="85" x2="38" y2="45" />
<line class="tic-small" x1="38" y1="85" x2="38" y2="45" />
<line class="tic-small" x1="37" y1="85" x2="37" y2="45" />
<line class="tic-small" x1="37" y1="85" x2="37" y2="45" />
<line class="tic-small" x1="36" y1="85" x2="36" y2="45" />
<line class="tic-small" x1="36" y1="85" x2="36" y2="45" />
<line class="tic-small" x1="36" y1="85" x2="36" y2="45" />
<line class="tic-small" x1="35" y1="85" x2="35" y2="45" />
<line class="tic-small" x1="35" y1="85" x2="35" y2="45" />
<line class="tic-small" x1="34" y1="85" x2="34" y2="45" />
<line class="tic-small" x1="34" y1="85" x2="34" y2="45" />
<line class="tic-small" x1="34" y1="85" x2="34" y2="45" />
<line class="tic-small" x1="33" y1="85" x2="33" y2="45" />
<line class="tic-small" x1="33" y1="85" x2="33" y2="45" />
<line class="tic-big" x1="32" y1="90" x2="32" y2="30" />
<line class="tic-big" x1="32" y1="90" x2="32" y2="30" />
<line class="tic-big" x1="40" y1="90" x2="40" y2="30" />
<line class="tic-big" x1="120" y1="90" x2="120" y2="30" />
<line class="tic-big" x1="920" y1="90" x2="920" y2="30" />
<text class="tic-lab" x="84" y="110">
1.0
</text>
<text class="tic-lab" x="884" y="110">
10.0
</text>
<line class="tic-bnum" x1="376" y1="95" x2="376" y2="20" />
<text class="tic-num" x="340" y="110">
4/3
</text>
</g>
</svg>
