<svg viewBox="0 0 1200 210" xmlns:xlink="http://www.w3.org/1999/xlink" xmlns="http://www.w3.org/2000/svg">
<style>
.diag-py-rect {fill: rgba(241, 228, 194, 1.0); stroke: none;}
.diag-num-rect { fill: none; stroke: none; }
.diag-rem-rect { fill: none; stroke: none; }
.diag-num-line { stroke-width: 2; stroke: darkgray; }
.diag-num-path { stroke-width: 2; stroke: blue; fill: none; }
.diag-num-dot { stroke-width: 1; stroke: blue; fill: blue; }
.diag-num-elps { stroke-width: 3; stroke: red; fill: none; }
.diag-py { font-family: "Roboto Mono", monospace; font-size: 1em; white-space: pre; dominant-baseline: middle; fill: black; }
.diag-num-bin { font-family: "Roboto Mono"; font-size: 1.2em; letter-spacing: 0.13em; dominant-baseline: middle; fill: black; }
.diag-num-oct { font-family: "Roboto Mono"; font-size: 1.2em; font-style: italic; letter-spacing: 0.13em; dominant-baseline: middle; fill: black; }
.diag-num-dec { font-family: "Roboto Mono"; font-size: 1.2em; font-weight: bolder; letter-spacing: 0.13em; dominant-baseline: middle; fill: black; }
.diag-num-hex { font-family: "Roboto Mono"; font-size: 1.2em; font-style: italic; font-weight: bolder; letter-spacing: 0.13em; dominant-baseline: middle; fill: black; }
.diag-rem { font-family: Arial; font-size: 1em; dominant-baseline: middle; fill: darkslategray; }
</style>
<!-- LINE 0 -->
<g transform="translate(0,0)">
<rect class="diag-py-rect" width="360" height="70" />
<text class="diag-py" x="10" y="35">
b = big + y   # y = 4
</text>
</g>
<g transform="translate(360,0)">
<rect class="diag-num-rect" width="358" height="70" />
<line class="diag-num-line" x1="15" y1="50" x2="320.0" y2="50" />
<path class="diag-num-path" d="M 72 10 L 72 50 L 246.0 50 L 246.0 10" />
<circle class="diag-num-dot" cx="262.6" cy="44" r="3.0" />
<text class="diag-num-dec" x="20" y="33">
&#160;&#160;&#160;xx&#160;...&#160;xz4
</text>
</g>
<g transform="translate(718,0)">
<rect class="diag-rem-rect" width="482" height="70" />
<text class="diag-rem" x="10" y="35">
Most arithmetics would round the 4 down
</text>
</g>
<!-- LINE 1 -->
<g transform="translate(0,70)">
<rect class="diag-py-rect" width="360" height="70" />
<text class="diag-py" x="10" y="35">
b = big + y   # y = 8
</text>
</g>
<g transform="translate(360,70)">
<rect class="diag-num-rect" width="358" height="70" />
<line class="diag-num-line" x1="15" y1="50" x2="320.0" y2="50" />
<path class="diag-num-path" d="M 72 10 L 72 50 L 246.0 50 L 246.0 10" />
<circle class="diag-num-dot" cx="262.6" cy="44" r="3.0" />
<ellipse class="diag-num-elps" cx="252.8" cy="30" rx="12" ry="20" />
<text class="diag-num-dec" x="20" y="33">
&#160;&#160;&#160;1xx&#160;...&#160;xz8
</text>
</g>
<g transform="translate(718,70)">
<rect class="diag-rem-rect" width="482" height="70" />
<text class="diag-rem" x="10" y="20">
<tspan>Modern decimal arithmetic would round</tspan>
<tspan x="25" dy="1.2em">into the z digit</tspan>
</text>
</g>
<!-- LINE 2 -->
<g transform="translate(0,140)">
<rect class="diag-py-rect" width="360" height="70" />
<text class="diag-py" x="10" y="35">
b = big + y   # y = 16
</text>
</g>
<g transform="translate(360,140)">
<rect class="diag-num-rect" width="358" height="70" />
<line class="diag-num-line" x1="15" y1="50" x2="320.0" y2="50" />
<path class="diag-num-path" d="M 72 10 L 72 50 L 246.0 50 L 246.0 10" />
<circle class="diag-num-dot" cx="262.6" cy="44" r="3.0" />
<ellipse class="diag-num-elps" cx="252.8" cy="30" rx="12" ry="20" />
<text class="diag-num-dec" x="20" y="33">
&#160;&#160;&#160;1xx&#160;...&#160;xZ6
</text>
</g>
<g transform="translate(718,140)">
<rect class="diag-rem-rect" width="482" height="70" />
<text class="diag-rem" x="10" y="20">
<tspan>In chopped arithmetic this bumps z to Z = z + 1</tspan>
<tspan x="25" dy="1.2em">possibly with a carry into the next digit</tspan>
</text>
</g>
</svg>
