<svg viewBox="0 0 1200 280" xmlns:xlink="http://www.w3.org/1999/xlink" xmlns="http://www.w3.org/2000/svg">
<style>
.diag-py-rect {fill: rgba(241, 228, 194, 1.0); stroke: none;}
.diag-num-rect { fill: none; stroke: none; }
.diag-rem-rect { fill: none; stroke: none; }
.diag-num-line { stroke-width: 2; stroke: darkgray; }
.diag-num-path { stroke-width: 2; stroke: blue; fill: none; }
.diag-num-dot { stroke-width: 1; stroke: blue; fill: blue; }
.diag-num-elps { stroke-width: 3; stroke: red; fill: none; }
.diag-py { font-family: Courier, monospace; font-size: 1em; white-space: pre; dominant-baseline: middle; fill: black; }
.diag-num-bin { font-family: "Roboto Mono"; font-size: 1.2em; letter-spacing: 0.13em; dominant-baseline: middle; fill: black; }
.diag-num-oct { font-family: "Roboto Mono"; font-size: 1.2em; font-style: italic; letter-spacing: 0.13em; dominant-baseline: middle; fill: black; }
.diag-num-dec { font-family: "Roboto Mono"; font-size: 1.2em; font-weight: bolder; letter-spacing: 0.13em; dominant-baseline: middle; fill: black; }
.diag-num-hex { font-family: "Roboto Mono"; font-size: 1.2em; font-style: italic; font-weight: bolder; letter-spacing: 0.13em; dominant-baseline: middle; fill: black; }
.diag-rem { font-family: Arial; font-size: 1em; dominant-baseline: middle; fill: darkslategray; }
.tic-rect { fill: lightgray; stroke: none; }
.tic-line { stroke-width: 3; stroke: dimgray; }
.tic-big { stroke-width: 3; stroke: dimgray; }
.tic-small { stroke-width: 2; stroke: darkgray; }
.tic-hnum { stroke-width: 1; stroke: blue; }
.tic-mnum { stroke-width: 2; stroke: blue; }
.tic-bnum { stroke-width: 3; stroke: blue; }
.tic-lab { font-family: "Roboto Mono", monospace; font-size: 1.2em; white-space: pre; dominant-baseline: middle; fill: black; }
.tic-num { font-family: "Roboto Mono", monospace; font-size: 1.2em; font-weight: bolder;white-space: pre; dominant-baseline: middle; fill: blue; }
</style>
<!-- LINE 0 -->
<g transform="translate(0,0)">
<rect class="diag-py-rect" width="360" height="70" />
<text class="diag-py" x="10" y="35">
ONE
</text>
</g>
<g transform="translate(360,0)">
<rect class="diag-num-rect" width="289" height="70" />
<line class="diag-num-line" x1="15" y1="50" x2="250.4" y2="50" />
<path class="diag-num-path" d="M 72 10 L 72 50 L 176.4 50 L 176.4 10" />
<circle class="diag-num-dot" cx="88.6" cy="44" r="3.0" />
<text class="diag-num-dec" x="20" y="33">
&#160;&#160;&#160;100000
</text>
</g>
<g transform="translate(649,0)">
<rect class="diag-rem-rect" width="551" height="70" />
<text class="diag-rem" x="10" y="35">
exhibit decimal point alignment
</text>
</g>
<!-- LINE 1 -->
<g transform="translate(0,70)">
<rect class="diag-py-rect" width="360" height="70" />
<text class="diag-py" x="10" y="35">
ULP_ONE_MINUS
</text>
</g>
<g transform="translate(360,70)">
<rect class="diag-num-rect" width="289" height="70" />
<line class="diag-num-line" x1="15" y1="50" x2="250.4" y2="50" />
<path class="diag-num-path" d="M 72 10 L 72 50 L 176.4 50 L 176.4 10" />
<circle class="diag-num-dot" cx="88.6" cy="44" r="3.0" />
<text class="diag-num-dec" x="20" y="33">
&#160;&#160;&#160;0000001
</text>
</g>
<g transform="translate(649,70)">
<rect class="diag-rem-rect" width="551" height="70" />
<text class="diag-rem" x="10" y="35">
the 1 falls one digit to the right
</text>
</g>
<!-- LINE 2 -->
<g transform="translate(0,140)">
<rect class="diag-py-rect" width="360" height="70" />
<text class="diag-py" x="10" y="35">
ONE / ULP_ONE_MINUS
</text>
</g>
<g transform="translate(360,140)">
<rect class="diag-num-rect" width="289" height="70" />
<line class="diag-num-line" x1="15" y1="50" x2="250.4" y2="50" />
<path class="diag-num-path" d="M 72 10 L 72 50 L 176.4 50 L 176.4 10" />
<circle class="diag-num-dot" cx="175.6" cy="44" r="3.0" />
<text class="diag-num-dec" x="20" y="33">
&#160;&#160;1000000
</text>
</g>
<g transform="translate(649,140)">
<rect class="diag-rem-rect" width="551" height="70" />
<text class="diag-rem" x="10" y="35">
10**6, where 6 = precision
</text>
</g>
<!-- LINE 3 -->
<g transform="translate(0,210)">
<rect class="diag-py-rect" width="360" height="70" />
<text class="diag-py" x="10" y="35">
# 1 less
</text>
</g>
<g transform="translate(360,210)">
<rect class="diag-num-rect" width="289" height="70" />
<line class="diag-num-line" x1="15" y1="50" x2="250.4" y2="50" />
<path class="diag-num-path" d="M 72 10 L 72 50 L 176.4 50 L 176.4 10" />
<circle class="diag-num-dot" cx="175.6" cy="44" r="3.0" />
<text class="diag-num-dec" x="20" y="33">
&#160;&#160;&#160;999999
</text>
</g>
<g transform="translate(649,210)">
<rect class="diag-rem-rect" width="551" height="70" />
<text class="diag-rem" x="10" y="35">
10**6 - 1
</text>
</g>
</svg>
