<svg viewBox="0 0 1200 210" xmlns:xlink="http://www.w3.org/1999/xlink" xmlns="http://www.w3.org/2000/svg">
<style>
.diag-py-rect {fill: rgba(241, 228, 194, 1.0); stroke: none;}
.diag-num-rect { fill: none; stroke: none; }
.diag-rem-rect { fill: none; stroke: none; }
.diag-num-line { stroke-width: 2; stroke: darkgray; }
.diag-num-path { stroke-width: 2; stroke: blue; fill: none; }
.diag-num-dot { stroke-width: 1; stroke: blue; fill: blue; }
.diag-num-elps { stroke-width: 3; stroke: red; fill: none; }
.diag-py { font-family: "Roboto Mono"; font-size: 1em; dominant-baseline: middle; fill: black; }
.diag-num-bin { font-family: "Roboto Mono"; font-size: 1.2em; letter-spacing: 0.13em; dominant-baseline: middle; fill: black; }
.diag-num-oct { font-family: "Roboto Mono"; font-size: 1.2em; font-style: italic; letter-spacing: 0.13em; dominant-baseline: middle; fill: black; }
.diag-num-dec { font-family: "Roboto Mono"; font-size: 1.2em; font-weight: bolder; letter-spacing: 0.13em; dominant-baseline: middle; fill: black; }
.diag-num-hex { font-family: "Roboto Mono"; font-size: 1.2em; font-style: italic; font-weight: bolder; letter-spacing: 0.13em; dominant-baseline: middle; fill: black; }
.diag-rem { font-family: Arial; font-size: 1em; dominant-baseline: middle; fill: darkslategray; }
</style>
<!-- LINE 0 -->
<g transform="translate(0,0)">
<rect class="diag-py-rect" width="360" height="70" />
<text class="diag-py" x="10" y="35">
ONE = 1.0
</text>
</g>
<g transform="translate(360,0)">
<rect class="diag-num-rect" width="360" height="70" />
<line class="diag-num-line" x1="15" y1="50" x2="320" y2="50" />
<path class="diag-num-path" d="M 72 10 L 72 50 L 246 50 L 246 10" />
<circle class="diag-num-dot" cx="88.6" cy="44" r="2.5" />
<text class="diag-num-bin" x="20" y="33">
&#160;&#160;&#160;100&#160;...&#160;00
</text>
</g>
<g transform="translate(720,0)">
<rect class="diag-rem-rect" width="480" height="70" />
<text class="diag-rem" x="10" y="35">
The constant value one
</text>
</g>
<!-- LINE 1 -->
<g transform="translate(0,70)">
<rect class="diag-py-rect" width="360" height="70" />
<text class="diag-py" x="10" y="35">
ONE_PLUS_ULP = ...
</text>
</g>
<g transform="translate(360,70)">
<rect class="diag-num-rect" width="360" height="70" />
<line class="diag-num-line" x1="15" y1="50" x2="320" y2="50" />
<path class="diag-num-path" d="M 72 10 L 72 50 L 246 50 L 246 10" />
<circle class="diag-num-dot" cx="88.6" cy="44" r="2.5" />
<text class="diag-num-bin" x="20" y="33">
&#160;&#160;&#160;100&#160;...&#160;01
</text>
</g>
<g transform="translate(720,70)">
<rect class="diag-rem-rect" width="480" height="70" />
<text class="diag-rem" x="10" y="35">
The next number larger than one
</text>
</g>
<!-- LINE 2 -->
<g transform="translate(0,140)">
<rect class="diag-py-rect" width="360" height="70" />
<text class="diag-py" x="10" y="35">
ULP_OF_ONE_PLUS = ...
</text>
</g>
<g transform="translate(360,140)">
<rect class="diag-num-rect" width="360" height="70" />
<line class="diag-num-line" x1="15" y1="50" x2="320" y2="50" />
<path class="diag-num-path" d="M 72 10 L 72 50 L 246 50 L 246 10" />
<circle class="diag-num-dot" cx="88.6" cy="44" r="2.5" />
<ellipse class="diag-num-elps" cx="78.8" cy="30" rx="12" ry="20" />
<text class="diag-num-bin" x="20" y="33">
&#160;&#160;&#160;000&#160;...&#160;01
</text>
</g>
<g transform="translate(720,140)">
<rect class="diag-rem-rect" width="480" height="70" />
<text class="diag-rem" x="10" y="20">
<tspan>A unit in the last place of one;</tspan>
<tspan x="25" dy="1.2em">ote the value 1 is subtracted off</tspan>
</text>
</g>
</svg>
