<svg version="1.1" viewBox="0.0 0.0 564.0 412.0" fill="none" stroke="none" stroke-linecap="square" stroke-miterlimit="10" xmlns:xlink="http://www.w3.org/1999/xlink" xmlns="http://www.w3.org/2000/svg"><clipPath id="p.0"><path d="m0 0l564.0 0l0 412.0l-564.0 0l0 -412.0z" clip-rule="nonzero"/></clipPath><g clip-path="url(#p.0)"><path fill="#000000" fill-opacity="0.0" d="m0 0l564.0 0l0 412.0l-564.0 0z" fill-rule="evenodd"/><path fill="#ffffff" d="m137.0 211.00787l0 0c0 -86.71305 70.294815 -157.00787 157.00787 -157.00787l0 0c41.641083 0 81.57663 16.541855 111.02133 45.98654c29.444702 29.444687 45.98654 69.38025 45.98654 111.02133l0 0c0 86.71304 -70.29483 157.00787 -157.00787 157.00787l0 0c-86.71306 0 -157.00787 -70.29483 -157.00787 -157.00787z" fill-rule="evenodd"/><path stroke="#b7b7b7" stroke-width="4.0" stroke-linejoin="round" stroke-linecap="butt" d="m137.0 211.00787l0 0c0 -86.71305 70.294815 -157.00787 157.00787 -157.00787l0 0c41.641083 0 81.57663 16.541855 111.02133 45.98654c29.444702 29.444687 45.98654 69.38025 45.98654 111.02133l0 0c0 86.71304 -70.29483 157.00787 -157.00787 157.00787l0 0c-86.71306 0 -157.00787 -70.29483 -157.00787 -157.00787z" fill-rule="evenodd"/><path fill="#000000" fill-opacity="0.0" d="m230.71654 -0.27559054l126.58269 0l0 42.015747l-126.58269 0z" fill-rule="evenodd"/><path fill="#000000" d="m256.70996 26.644407l0 -13.265625l-0.140625 0l-5.765625 2.09375l0 2.203125l3.34375 -1.203125l0 10.171875l2.5625 0zm13.633087 -5.046875l0 -3.171875q0 -1.28125 -0.3125 -2.25q-0.296875 -0.984375 -0.84375 -1.65625q-0.5625 -0.65625 -1.375 -0.984375q-0.796875 -0.34375 -1.796875 -0.34375q-1.0 0 -1.796875 0.34375q-0.796875 0.328125 -1.34375 0.984375q-0.5625 0.671875 -0.875 1.65625q-0.296875 0.96875 -0.296875 2.25l0 3.171875q0 1.28125 0.296875 2.265625q0.3125 0.984375 0.875 1.640625q0.5625 0.65625 1.359375 1.0q0.8125 0.328125 1.796875 0.328125q1.0 0 1.796875 -0.328125q0.8125 -0.34375 1.359375 -1.0q0.5625 -0.65625 0.859375 -1.640625q0.296875 -0.984375 0.296875 -2.265625zm-6.09375 -1.09375q0 -0.28125 0 -0.421875q0 -0.15625 0 -0.59375l0 -1.46875q0 -0.734375 0.109375 -1.265625q0.125 -0.546875 0.359375 -0.875q0.21875 -0.328125 0.546875 -0.484375q0.328125 -0.15625 0.75 -0.15625q0.375 0 0.6875 0.125q0.3125 0.125 0.515625 0.375q0.265625 0.328125 0.40625 0.859375q0.140625 0.53125 0.171875 1.28125l-3.546875 2.625zm3.546875 1.46875q0 0.75 -0.125 1.296875q-0.109375 0.53125 -0.328125 0.875q-0.21875 0.328125 -0.546875 0.5q-0.328125 0.15625 -0.765625 0.15625q-0.46875 0 -0.8125 -0.1875q-0.328125 -0.1875 -0.546875 -0.5625q-0.1875 -0.296875 -0.296875 -0.765625q-0.09375 -0.46875 -0.125 -1.0625l3.546875 -2.625q0 0.265625 0 0.40625q0 0.140625 0 0.4375l0 1.53125zm13.742432 -0.375l0 -3.171875q0 -1.28125 -0.3125 -2.25q-0.296875 -0.984375 -0.84375 -1.65625q-0.5625 -0.65625 -1.375 -0.984375q-0.796875 -0.34375 -1.796875 -0.34375q-1.0 0 -1.796875 0.34375q-0.796875 0.328125 -1.34375 0.984375q-0.5625 0.671875 -0.875 1.65625q-0.296875 0.96875 -0.296875 2.25l0 3.171875q0 1.28125 0.296875 2.265625q0.3125 0.984375 0.875 1.640625q0.5625 0.65625 1.359375 1.0q0.8125 0.328125 1.796875 0.328125q1.0 0 1.796875 -0.328125q0.8125 -0.34375 1.359375 -1.0q0.5625 -0.65625 0.859375 -1.640625q0.296875 -0.984375 0.296875 -2.265625zm-6.09375 -1.09375q0 -0.28125 0 -0.421875q0 -0.15625 0 -0.59375l0 -1.46875q0 -0.734375 0.109375 -1.265625q0.125 -0.546875 0.359375 -0.875q0.21875 -0.328125 0.546875 -0.484375q0.328125 -0.15625 0.75 -0.15625q0.375 0 0.6875 0.125q0.3125 0.125 0.515625 0.375q0.265625 0.328125 0.40625 0.859375q0.140625 0.53125 0.171875 1.28125l-3.546875 2.625zm3.546875 1.46875q0 0.75 -0.125 1.296875q-0.109375 0.53125 -0.328125 0.875q-0.21875 0.328125 -0.546875 0.5q-0.328125 0.15625 -0.765625 0.15625q-0.46875 0 -0.8125 -0.1875q-0.328125 -0.1875 -0.546875 -0.5625q-0.1875 -0.296875 -0.296875 -0.765625q-0.09375 -0.46875 -0.125 -1.0625l3.546875 -2.625q0 0.265625 0 0.40625q0 0.140625 0 0.4375l0 1.53125zm13.742462 -0.375l0 -3.171875q0 -1.28125 -0.3125 -2.25q-0.296875 -0.984375 -0.84375 -1.65625q-0.5625 -0.65625 -1.375 -0.984375q-0.796875 -0.34375 -1.796875 -0.34375q-1.0 0 -1.796875 0.34375q-0.796875 0.328125 -1.34375 0.984375q-0.5625 0.671875 -0.875 1.65625q-0.296875 0.96875 -0.296875 2.25l0 3.171875q0 1.28125 0.296875 2.265625q0.3125 0.984375 0.875 1.640625q0.5625 0.65625 1.359375 1.0q0.8125 0.328125 1.796875 0.328125q1.0 0 1.796875 -0.328125q0.8125 -0.34375 1.359375 -1.0q0.5625 -0.65625 0.859375 -1.640625q0.296875 -0.984375 0.296875 -2.265625zm-6.09375 -1.09375q0 -0.28125 0 -0.421875q0 -0.15625 0 -0.59375l0 -1.46875q0 -0.734375 0.109375 -1.265625q0.125 -0.546875 0.359375 -0.875q0.21875 -0.328125 0.546875 -0.484375q0.328125 -0.15625 0.75 -0.15625q0.375 0 0.6875 0.125q0.3125 0.125 0.515625 0.375q0.265625 0.328125 0.40625 0.859375q0.140625 0.53125 0.171875 1.28125l-3.546875 2.625zm3.546875 1.46875q0 0.75 -0.125 1.296875q-0.109375 0.53125 -0.328125 0.875q-0.21875 0.328125 -0.546875 0.5q-0.328125 0.15625 -0.765625 0.15625q-0.46875 0 -0.8125 -0.1875q-0.328125 -0.1875 -0.546875 -0.5625q-0.1875 -0.296875 -0.296875 -0.765625q-0.09375 -0.46875 -0.125 -1.0625l3.546875 -2.625q0 0.265625 0 0.40625q0 0.140625 0 0.4375l0 1.53125zm13.742432 -0.375l0 -3.171875q0 -1.28125 -0.3125 -2.25q-0.296875 -0.984375 -0.84375 -1.65625q-0.5625 -0.65625 -1.375 -0.984375q-0.796875 -0.34375 -1.796875 -0.34375q-1.0 0 -1.796875 0.34375q-0.796875 0.328125 -1.34375 0.984375q-0.5625 0.671875 -0.875 1.65625q-0.296875 0.96875 -0.296875 2.25l0 3.171875q0 1.28125 0.296875 2.265625q0.3125 0.984375 0.875 1.640625q0.5625 0.65625 1.359375 1.0q0.8125 0.328125 1.796875 0.328125q1.0 0 1.796875 -0.328125q0.8125 -0.34375 1.359375 -1.0q0.5625 -0.65625 0.859375 -1.640625q0.296875 -0.984375 0.296875 -2.265625zm-6.09375 -1.09375q0 -0.28125 0 -0.421875q0 -0.15625 0 -0.59375l0 -1.46875q0 -0.734375 0.109375 -1.265625q0.125 -0.546875 0.359375 -0.875q0.21875 -0.328125 0.546875 -0.484375q0.328125 -0.15625 0.75 -0.15625q0.375 0 0.6875 0.125q0.3125 0.125 0.515625 0.375q0.265625 0.328125 0.40625 0.859375q0.140625 0.53125 0.171875 1.28125l-3.546875 2.625zm3.546875 1.46875q0 0.75 -0.125 1.296875q-0.109375 0.53125 -0.328125 0.875q-0.21875 0.328125 -0.546875 0.5q-0.328125 0.15625 -0.765625 0.15625q-0.46875 0 -0.8125 -0.1875q-0.328125 -0.1875 -0.546875 -0.5625q-0.1875 -0.296875 -0.296875 -0.765625q-0.09375 -0.46875 -0.125 -1.0625l3.546875 -2.625q0 0.265625 0 0.40625q0 0.140625 0 0.4375l0 1.53125zm13.742432 -0.375l0 -3.171875q0 -1.28125 -0.3125 -2.25q-0.296875 -0.984375 -0.84375 -1.65625q-0.5625 -0.65625 -1.375 -0.984375q-0.796875 -0.34375 -1.796875 -0.34375q-1.0 0 -1.796875 0.34375q-0.796875 0.328125 -1.34375 0.984375q-0.5625 0.671875 -0.875 1.65625q-0.296875 0.96875 -0.296875 2.25l0 3.171875q0 1.28125 0.296875 2.265625q0.3125 0.984375 0.875 1.640625q0.5625 0.65625 1.359375 1.0q0.8125 0.328125 1.796875 0.328125q1.0 0 1.796875 -0.328125q0.8125 -0.34375 1.359375 -1.0q0.5625 -0.65625 0.859375 -1.640625q0.296875 -0.984375 0.296875 -2.265625zm-6.09375 -1.09375q0 -0.28125 0 -0.421875q0 -0.15625 0 -0.59375l0 -1.46875q0 -0.734375 0.109375 -1.265625q0.125 -0.546875 0.359375 -0.875q0.21875 -0.328125 0.546875 -0.484375q0.328125 -0.15625 0.75 -0.15625q0.375 0 0.6875 0.125q0.3125 0.125 0.515625 0.375q0.265625 0.328125 0.40625 0.859375q0.140625 0.53125 0.171875 1.28125l-3.546875 2.625zm3.546875 1.46875q0 0.75 -0.125 1.296875q-0.109375 0.53125 -0.328125 0.875q-0.21875 0.328125 -0.546875 0.5q-0.328125 0.15625 -0.765625 0.15625q-0.46875 0 -0.8125 -0.1875q-0.328125 -0.1875 -0.546875 -0.5625q-0.1875 -0.296875 -0.296875 -0.765625q-0.09375 -0.46875 -0.125 -1.0625l3.546875 -2.625q0 0.265625 0 0.40625q0 0.140625 0 0.4375l0 1.53125zm13.742462 -0.375l0 -3.171875q0 -1.28125 -0.3125 -2.25q-0.296875 -0.984375 -0.84375 -1.65625q-0.5625 -0.65625 -1.375 -0.984375q-0.796875 -0.34375 -1.796875 -0.34375q-1.0 0 -1.796875 0.34375q-0.796875 0.328125 -1.34375 0.984375q-0.5625 0.671875 -0.875 1.65625q-0.296875 0.96875 -0.296875 2.25l0 3.171875q0 1.28125 0.296875 2.265625q0.3125 0.984375 0.875 1.640625q0.5625 0.65625 1.359375 1.0q0.8125 0.328125 1.796875 0.328125q1.0 0 1.796875 -0.328125q0.8125 -0.34375 1.359375 -1.0q0.5625 -0.65625 0.859375 -1.640625q0.296875 -0.984375 0.296875 -2.265625zm-6.09375 -1.09375q0 -0.28125 0 -0.421875q0 -0.15625 0 -0.59375l0 -1.46875q0 -0.734375 0.109375 -1.265625q0.125 -0.546875 0.359375 -0.875q0.21875 -0.328125 0.546875 -0.484375q0.328125 -0.15625 0.75 -0.15625q0.375 0 0.6875 0.125q0.3125 0.125 0.515625 0.375q0.265625 0.328125 0.40625 0.859375q0.140625 0.53125 0.171875 1.28125l-3.546875 2.625zm3.546875 1.46875q0 0.75 -0.125 1.296875q-0.109375 0.53125 -0.328125 0.875q-0.21875 0.328125 -0.546875 0.5q-0.328125 0.15625 -0.765625 0.15625q-0.46875 0 -0.8125 -0.1875q-0.328125 -0.1875 -0.546875 -0.5625q-0.1875 -0.296875 -0.296875 -0.765625q-0.09375 -0.46875 -0.125 -1.0625l3.546875 -2.625q0 0.265625 0 0.40625q0 0.140625 0 0.4375l0 1.53125zm13.742432 -0.375l0 -3.171875q0 -1.28125 -0.3125 -2.25q-0.296875 -0.984375 -0.84375 -1.65625q-0.5625 -0.65625 -1.375 -0.984375q-0.796875 -0.34375 -1.796875 -0.34375q-1.0 0 -1.796875 0.34375q-0.796875 0.328125 -1.34375 0.984375q-0.5625 0.671875 -0.875 1.65625q-0.296875 0.96875 -0.296875 2.25l0 3.171875q0 1.28125 0.296875 2.265625q0.3125 0.984375 0.875 1.640625q0.5625 0.65625 1.359375 1.0q0.8125 0.328125 1.796875 0.328125q1.0 0 1.796875 -0.328125q0.8125 -0.34375 1.359375 -1.0q0.5625 -0.65625 0.859375 -1.640625q0.296875 -0.984375 0.296875 -2.265625zm-6.09375 -1.09375q0 -0.28125 0 -0.421875q0 -0.15625 0 -0.59375l0 -1.46875q0 -0.734375 0.109375 -1.265625q0.125 -0.546875 0.359375 -0.875q0.21875 -0.328125 0.546875 -0.484375q0.328125 -0.15625 0.75 -0.15625q0.375 0 0.6875 0.125q0.3125 0.125 0.515625 0.375q0.265625 0.328125 0.40625 0.859375q0.140625 0.53125 0.171875 1.28125l-3.546875 2.625zm3.546875 1.46875q0 0.75 -0.125 1.296875q-0.109375 0.53125 -0.328125 0.875q-0.21875 0.328125 -0.546875 0.5q-0.328125 0.15625 -0.765625 0.15625q-0.46875 0 -0.8125 -0.1875q-0.328125 -0.1875 -0.546875 -0.5625q-0.1875 -0.296875 -0.296875 -0.765625q-0.09375 -0.46875 -0.125 -1.0625l3.546875 -2.625q0 0.265625 0 0.40625q0 0.140625 0 0.4375l0 1.53125z" fill-rule="nonzero"/><path fill="#000000" fill-opacity="0.0" d="m310.71652 23.72441l126.5827 0l0 42.015747l-126.5827 0z" fill-rule="evenodd"/><path fill="#000000" d="m339.14746 45.597534l0 -3.171875q0 -1.28125 -0.3125 -2.25q-0.296875 -0.984375 -0.84375 -1.65625q-0.5625 -0.65625 -1.375 -0.984375q-0.796875 -0.34375 -1.796875 -0.34375q-1.0 0 -1.796875 0.34375q-0.796875 0.328125 -1.34375 0.984375q-0.5625 0.671875 -0.875 1.65625q-0.296875 0.96875 -0.296875 2.25l0 3.171875q0 1.28125 0.296875 2.265625q0.3125 0.984375 0.875 1.640625q0.5625 0.65625 1.359375 1.0q0.8125 0.328125 1.796875 0.328125q1.0 0 1.796875 -0.328125q0.8125 -0.34375 1.359375 -1.0q0.5625 -0.65625 0.859375 -1.640625q0.296875 -0.984375 0.296875 -2.265625zm-6.09375 -1.09375q0 -0.28125 0 -0.421875q0 -0.15625 0 -0.59375l0 -1.46875q0 -0.734375 0.109375 -1.265625q0.125 -0.546875 0.359375 -0.875q0.21875 -0.328125 0.546875 -0.484375q0.328125 -0.15625 0.75 -0.15625q0.375 0 0.6875 0.125q0.3125 0.125 0.515625 0.375q0.265625 0.328125 0.40625 0.859375q0.140625 0.53125 0.171875 1.28125l-3.546875 2.625zm3.546875 1.46875q0 0.75 -0.125 1.296875q-0.109375 0.53125 -0.328125 0.875q-0.21875 0.328125 -0.546875 0.5q-0.328125 0.15625 -0.765625 0.15625q-0.46875 0 -0.8125 -0.1875q-0.328125 -0.1875 -0.546875 -0.5625q-0.1875 -0.296875 -0.296875 -0.765625q-0.09375 -0.46875 -0.125 -1.0625l3.546875 -2.625q0 0.265625 0 0.40625q0 0.140625 0 0.4375l0 1.53125zm11.304962 4.671875l0 -13.265625l-0.140625 0l-5.765625 2.09375l0 2.203125l3.34375 -1.203125l0 10.171875l2.5625 0zm11.195557 0l0 -13.265625l-0.140625 0l-5.765625 2.09375l0 2.203125l3.34375 -1.203125l0 10.171875l2.5625 0zm11.195587 0l0 -13.265625l-0.140625 0l-5.765625 2.09375l0 2.203125l3.34375 -1.203125l0 10.171875l2.5625 0zm11.195557 0l0 -13.265625l-0.140625 0l-5.765625 2.09375l0 2.203125l3.34375 -1.203125l0 10.171875l2.5625 0zm11.195557 0l0 -13.265625l-0.140625 0l-5.765625 2.09375l0 2.203125l3.34375 -1.203125l0 10.171875l2.5625 0zm11.195587 0l0 -13.265625l-0.140625 0l-5.765625 2.09375l0 2.203125l3.34375 -1.203125l0 10.171875l2.5625 0zm11.195557 0l0 -13.265625l-0.140625 0l-5.765625 2.09375l0 2.203125l3.34375 -1.203125l0 10.171875l2.5625 0z" fill-rule="nonzero"/><path fill="#000000" fill-opacity="0.0" d="m150.71654 23.72441l126.58269 0l0 42.015747l-126.58269 0z" fill-rule="evenodd"/><path fill="#000000" d="m176.70996 50.64441l0 -13.265625l-0.140625 0l-5.765625 2.09375l0 2.203125l3.34375 -1.203125l0 10.171875l2.5625 0zm13.633072 -5.046875l0 -3.171875q0 -1.28125 -0.3125 -2.25q-0.296875 -0.984375 -0.84375 -1.65625q-0.5625 -0.65625 -1.375 -0.984375q-0.796875 -0.34375 -1.796875 -0.34375q-1.0 0 -1.796875 0.34375q-0.796875 0.328125 -1.34375 0.984375q-0.5625 0.671875 -0.875 1.65625q-0.296875 0.96875 -0.296875 2.25l0 3.171875q0 1.28125 0.296875 2.265625q0.3125 0.984375 0.875 1.640625q0.5625 0.65625 1.359375 1.0q0.8125 0.328125 1.796875 0.328125q1.0 0 1.796875 -0.328125q0.8125 -0.34375 1.359375 -1.0q0.5625 -0.65625 0.859375 -1.640625q0.296875 -0.984375 0.296875 -2.265625zm-6.09375 -1.09375q0 -0.28125 0 -0.421875q0 -0.15625 0 -0.59375l0 -1.46875q0 -0.734375 0.109375 -1.265625q0.125 -0.546875 0.359375 -0.875q0.21875 -0.328125 0.546875 -0.484375q0.328125 -0.15625 0.75 -0.15625q0.375 0 0.6875 0.125q0.3125 0.125 0.515625 0.375q0.265625 0.328125 0.40625 0.859375q0.140625 0.53125 0.171875 1.28125l-3.546875 2.625zm3.546875 1.46875q0 0.75 -0.125 1.296875q-0.109375 0.53125 -0.328125 0.875q-0.21875 0.328125 -0.546875 0.5q-0.328125 0.15625 -0.765625 0.15625q-0.46875 0 -0.8125 -0.1875q-0.328125 -0.1875 -0.546875 -0.5625q-0.1875 -0.296875 -0.296875 -0.765625q-0.09375 -0.46875 -0.125 -1.0625l3.546875 -2.625q0 0.265625 0 0.40625q0 0.140625 0 0.4375l0 1.53125zm13.742447 -0.375l0 -3.171875q0 -1.28125 -0.3125 -2.25q-0.296875 -0.984375 -0.84375 -1.65625q-0.5625 -0.65625 -1.375 -0.984375q-0.796875 -0.34375 -1.796875 -0.34375q-1.0 0 -1.796875 0.34375q-0.796875 0.328125 -1.34375 0.984375q-0.5625 0.671875 -0.875 1.65625q-0.296875 0.96875 -0.296875 2.25l0 3.171875q0 1.28125 0.296875 2.265625q0.3125 0.984375 0.875 1.640625q0.5625 0.65625 1.359375 1.0q0.8125 0.328125 1.796875 0.328125q1.0 0 1.796875 -0.328125q0.8125 -0.34375 1.359375 -1.0q0.5625 -0.65625 0.859375 -1.640625q0.296875 -0.984375 0.296875 -2.265625zm-6.09375 -1.09375q0 -0.28125 0 -0.421875q0 -0.15625 0 -0.59375l0 -1.46875q0 -0.734375 0.109375 -1.265625q0.125 -0.546875 0.359375 -0.875q0.21875 -0.328125 0.546875 -0.484375q0.328125 -0.15625 0.75 -0.15625q0.375 0 0.6875 0.125q0.3125 0.125 0.515625 0.375q0.265625 0.328125 0.40625 0.859375q0.140625 0.53125 0.171875 1.28125l-3.546875 2.625zm3.546875 1.46875q0 0.75 -0.125 1.296875q-0.109375 0.53125 -0.328125 0.875q-0.21875 0.328125 -0.546875 0.5q-0.328125 0.15625 -0.765625 0.15625q-0.46875 0 -0.8125 -0.1875q-0.328125 -0.1875 -0.546875 -0.5625q-0.1875 -0.296875 -0.296875 -0.765625q-0.09375 -0.46875 -0.125 -1.0625l3.546875 -2.625q0 0.265625 0 0.40625q0 0.140625 0 0.4375l0 1.53125zm13.742447 -0.375l0 -3.171875q0 -1.28125 -0.3125 -2.25q-0.296875 -0.984375 -0.84375 -1.65625q-0.5625 -0.65625 -1.375 -0.984375q-0.796875 -0.34375 -1.796875 -0.34375q-1.0 0 -1.796875 0.34375q-0.796875 0.328125 -1.34375 0.984375q-0.5625 0.671875 -0.875 1.65625q-0.296875 0.96875 -0.296875 2.25l0 3.171875q0 1.28125 0.296875 2.265625q0.3125 0.984375 0.875 1.640625q0.5625 0.65625 1.359375 1.0q0.8125 0.328125 1.796875 0.328125q1.0 0 1.796875 -0.328125q0.8125 -0.34375 1.359375 -1.0q0.5625 -0.65625 0.859375 -1.640625q0.296875 -0.984375 0.296875 -2.265625zm-6.09375 -1.09375q0 -0.28125 0 -0.421875q0 -0.15625 0 -0.59375l0 -1.46875q0 -0.734375 0.109375 -1.265625q0.125 -0.546875 0.359375 -0.875q0.21875 -0.328125 0.546875 -0.484375q0.328125 -0.15625 0.75 -0.15625q0.375 0 0.6875 0.125q0.3125 0.125 0.515625 0.375q0.265625 0.328125 0.40625 0.859375q0.140625 0.53125 0.171875 1.28125l-3.546875 2.625zm3.546875 1.46875q0 0.75 -0.125 1.296875q-0.109375 0.53125 -0.328125 0.875q-0.21875 0.328125 -0.546875 0.5q-0.328125 0.15625 -0.765625 0.15625q-0.46875 0 -0.8125 -0.1875q-0.328125 -0.1875 -0.546875 -0.5625q-0.1875 -0.296875 -0.296875 -0.765625q-0.09375 -0.46875 -0.125 -1.0625l3.546875 -2.625q0 0.265625 0 0.40625q0 0.140625 0 0.4375l0 1.53125zm13.742447 -0.375l0 -3.171875q0 -1.28125 -0.3125 -2.25q-0.296875 -0.984375 -0.84375 -1.65625q-0.5625 -0.65625 -1.375 -0.984375q-0.796875 -0.34375 -1.796875 -0.34375q-1.0 0 -1.796875 0.34375q-0.796875 0.328125 -1.34375 0.984375q-0.5625 0.671875 -0.875 1.65625q-0.296875 0.96875 -0.296875 2.25l0 3.171875q0 1.28125 0.296875 2.265625q0.3125 0.984375 0.875 1.640625q0.5625 0.65625 1.359375 1.0q0.8125 0.328125 1.796875 0.328125q1.0 0 1.796875 -0.328125q0.8125 -0.34375 1.359375 -1.0q0.5625 -0.65625 0.859375 -1.640625q0.296875 -0.984375 0.296875 -2.265625zm-6.09375 -1.09375q0 -0.28125 0 -0.421875q0 -0.15625 0 -0.59375l0 -1.46875q0 -0.734375 0.109375 -1.265625q0.125 -0.546875 0.359375 -0.875q0.21875 -0.328125 0.546875 -0.484375q0.328125 -0.15625 0.75 -0.15625q0.375 0 0.6875 0.125q0.3125 0.125 0.515625 0.375q0.265625 0.328125 0.40625 0.859375q0.140625 0.53125 0.171875 1.28125l-3.546875 2.625zm3.546875 1.46875q0 0.75 -0.125 1.296875q-0.109375 0.53125 -0.328125 0.875q-0.21875 0.328125 -0.546875 0.5q-0.328125 0.15625 -0.765625 0.15625q-0.46875 0 -0.8125 -0.1875q-0.328125 -0.1875 -0.546875 -0.5625q-0.1875 -0.296875 -0.296875 -0.765625q-0.09375 -0.46875 -0.125 -1.0625l3.546875 -2.625q0 0.265625 0 0.40625q0 0.140625 0 0.4375l0 1.53125zm13.742447 -0.375l0 -3.171875q0 -1.28125 -0.3125 -2.25q-0.296875 -0.984375 -0.84375 -1.65625q-0.5625 -0.65625 -1.375 -0.984375q-0.796875 -0.34375 -1.796875 -0.34375q-1.0 0 -1.796875 0.34375q-0.796875 0.328125 -1.34375 0.984375q-0.5625 0.671875 -0.875 1.65625q-0.296875 0.96875 -0.296875 2.25l0 3.171875q0 1.28125 0.296875 2.265625q0.3125 0.984375 0.875 1.640625q0.5625 0.65625 1.359375 1.0q0.8125 0.328125 1.796875 0.328125q1.0 0 1.796875 -0.328125q0.8125 -0.34375 1.359375 -1.0q0.5625 -0.65625 0.859375 -1.640625q0.296875 -0.984375 0.296875 -2.265625zm-6.09375 -1.09375q0 -0.28125 0 -0.421875q0 -0.15625 0 -0.59375l0 -1.46875q0 -0.734375 0.109375 -1.265625q0.125 -0.546875 0.359375 -0.875q0.21875 -0.328125 0.546875 -0.484375q0.328125 -0.15625 0.75 -0.15625q0.375 0 0.6875 0.125q0.3125 0.125 0.515625 0.375q0.265625 0.328125 0.40625 0.859375q0.140625 0.53125 0.171875 1.28125l-3.546875 2.625zm3.546875 1.46875q0 0.75 -0.125 1.296875q-0.109375 0.53125 -0.328125 0.875q-0.21875 0.328125 -0.546875 0.5q-0.328125 0.15625 -0.765625 0.15625q-0.46875 0 -0.8125 -0.1875q-0.328125 -0.1875 -0.546875 -0.5625q-0.1875 -0.296875 -0.296875 -0.765625q-0.09375 -0.46875 -0.125 -1.0625l3.546875 -2.625q0 0.265625 0 0.40625q0 0.140625 0 0.4375l0 1.53125zm13.742447 -0.375l0 -3.171875q0 -1.28125 -0.3125 -2.25q-0.296875 -0.984375 -0.84375 -1.65625q-0.5625 -0.65625 -1.375 -0.984375q-0.796875 -0.34375 -1.796875 -0.34375q-1.0 0 -1.796875 0.34375q-0.796875 0.328125 -1.34375 0.984375q-0.5625 0.671875 -0.875 1.65625q-0.296875 0.96875 -0.296875 2.25l0 3.171875q0 1.28125 0.296875 2.265625q0.3125 0.984375 0.875 1.640625q0.5625 0.65625 1.359375 1.0q0.8125 0.328125 1.796875 0.328125q1.0 0 1.796875 -0.328125q0.8125 -0.34375 1.359375 -1.0q0.5625 -0.65625 0.859375 -1.640625q0.296875 -0.984375 0.296875 -2.265625zm-6.09375 -1.09375q0 -0.28125 0 -0.421875q0 -0.15625 0 -0.59375l0 -1.46875q0 -0.734375 0.109375 -1.265625q0.125 -0.546875 0.359375 -0.875q0.21875 -0.328125 0.546875 -0.484375q0.328125 -0.15625 0.75 -0.15625q0.375 0 0.6875 0.125q0.3125 0.125 0.515625 0.375q0.265625 0.328125 0.40625 0.859375q0.140625 0.53125 0.171875 1.28125l-3.546875 2.625zm3.546875 1.46875q0 0.75 -0.125 1.296875q-0.109375 0.53125 -0.328125 0.875q-0.21875 0.328125 -0.546875 0.5q-0.328125 0.15625 -0.765625 0.15625q-0.46875 0 -0.8125 -0.1875q-0.328125 -0.1875 -0.546875 -0.5625q-0.1875 -0.296875 -0.296875 -0.765625q-0.09375 -0.46875 -0.125 -1.0625l3.546875 -2.625q0 0.265625 0 0.40625q0 0.140625 0 0.4375l0 1.53125zm11.304947 4.671875l0 -13.265625l-0.140625 0l-5.765625 2.09375l0 2.203125l3.34375 -1.203125l0 10.171875l2.5625 0z" fill-rule="nonzero"/><path fill="#000000" fill-opacity="0.0" d="m294.6378 75.74803l-0.62991333 -41.007874" fill-rule="evenodd"/><path stroke="#666666" stroke-width="3.0" stroke-linejoin="round" stroke-linecap="butt" d="m294.6378 75.74803l-0.62991333 -41.007874" fill-rule="evenodd"/><path fill="#000000" fill-opacity="0.0" d="m310.71652 355.7244l126.5827 0l0 42.015747l-126.5827 0z" fill-rule="evenodd"/><path fill="#000000" d="m339.14746 377.59753l0 -3.171875q0 -1.28125 -0.3125 -2.25q-0.296875 -0.984375 -0.84375 -1.65625q-0.5625 -0.65625 -1.375 -0.984375q-0.796875 -0.34375 -1.796875 -0.34375q-1.0 0 -1.796875 0.34375q-0.796875 0.328125 -1.34375 0.984375q-0.5625 0.671875 -0.875 1.65625q-0.296875 0.96875 -0.296875 2.25l0 3.171875q0 1.28125 0.296875 2.265625q0.3125 0.984375 0.875 1.640625q0.5625 0.65625 1.359375 1.0q0.8125 0.328125 1.796875 0.328125q1.0 0 1.796875 -0.328125q0.8125 -0.34375 1.359375 -1.0q0.5625 -0.65625 0.859375 -1.640625q0.296875 -0.984375 0.296875 -2.265625zm-6.09375 -1.09375q0 -0.28125 0 -0.421875q0 -0.15625 0 -0.59375l0 -1.46875q0 -0.734375 0.109375 -1.265625q0.125 -0.546875 0.359375 -0.875q0.21875 -0.328125 0.546875 -0.484375q0.328125 -0.15625 0.75 -0.15625q0.375 0 0.6875 0.125q0.3125 0.125 0.515625 0.375q0.265625 0.328125 0.40625 0.859375q0.140625 0.53125 0.171875 1.28125l-3.546875 2.625zm3.546875 1.46875q0 0.75 -0.125 1.296875q-0.109375 0.53125 -0.328125 0.875q-0.21875 0.328125 -0.546875 0.5q-0.328125 0.15625 -0.765625 0.15625q-0.46875 0 -0.8125 -0.1875q-0.328125 -0.1875 -0.546875 -0.5625q-0.1875 -0.296875 -0.296875 -0.765625q-0.09375 -0.46875 -0.125 -1.0625l3.546875 -2.625q0 0.265625 0 0.40625q0 0.140625 0 0.4375l0 1.53125zm13.742462 -0.375l0 -3.171875q0 -1.28125 -0.3125 -2.25q-0.296875 -0.984375 -0.84375 -1.65625q-0.5625 -0.65625 -1.375 -0.984375q-0.796875 -0.34375 -1.796875 -0.34375q-1.0 0 -1.796875 0.34375q-0.796875 0.328125 -1.34375 0.984375q-0.5625 0.671875 -0.875 1.65625q-0.296875 0.96875 -0.296875 2.25l0 3.171875q0 1.28125 0.296875 2.265625q0.3125 0.984375 0.875 1.640625q0.5625 0.65625 1.359375 1.0q0.8125 0.328125 1.796875 0.328125q1.0 0 1.796875 -0.328125q0.8125 -0.34375 1.359375 -1.0q0.5625 -0.65625 0.859375 -1.640625q0.296875 -0.984375 0.296875 -2.265625zm-6.09375 -1.09375q0 -0.28125 0 -0.421875q0 -0.15625 0 -0.59375l0 -1.46875q0 -0.734375 0.109375 -1.265625q0.125 -0.546875 0.359375 -0.875q0.21875 -0.328125 0.546875 -0.484375q0.328125 -0.15625 0.75 -0.15625q0.375 0 0.6875 0.125q0.3125 0.125 0.515625 0.375q0.265625 0.328125 0.40625 0.859375q0.140625 0.53125 0.171875 1.28125l-3.546875 2.625zm3.546875 1.46875q0 0.75 -0.125 1.296875q-0.109375 0.53125 -0.328125 0.875q-0.21875 0.328125 -0.546875 0.5q-0.328125 0.15625 -0.765625 0.15625q-0.46875 0 -0.8125 -0.1875q-0.328125 -0.1875 -0.546875 -0.5625q-0.1875 -0.296875 -0.296875 -0.765625q-0.09375 -0.46875 -0.125 -1.0625l3.546875 -2.625q0 0.265625 0 0.40625q0 0.140625 0 0.4375l0 1.53125zm13.742432 -0.375l0 -3.171875q0 -1.28125 -0.3125 -2.25q-0.296875 -0.984375 -0.84375 -1.65625q-0.5625 -0.65625 -1.375 -0.984375q-0.796875 -0.34375 -1.796875 -0.34375q-1.0 0 -1.796875 0.34375q-0.796875 0.328125 -1.34375 0.984375q-0.5625 0.671875 -0.875 1.65625q-0.296875 0.96875 -0.296875 2.25l0 3.171875q0 1.28125 0.296875 2.265625q0.3125 0.984375 0.875 1.640625q0.5625 0.65625 1.359375 1.0q0.8125 0.328125 1.796875 0.328125q1.0 0 1.796875 -0.328125q0.8125 -0.34375 1.359375 -1.0q0.5625 -0.65625 0.859375 -1.640625q0.296875 -0.984375 0.296875 -2.265625zm-6.09375 -1.09375q0 -0.28125 0 -0.421875q0 -0.15625 0 -0.59375l0 -1.46875q0 -0.734375 0.109375 -1.265625q0.125 -0.546875 0.359375 -0.875q0.21875 -0.328125 0.546875 -0.484375q0.328125 -0.15625 0.75 -0.15625q0.375 0 0.6875 0.125q0.3125 0.125 0.515625 0.375q0.265625 0.328125 0.40625 0.859375q0.140625 0.53125 0.171875 1.28125l-3.546875 2.625zm3.546875 1.46875q0 0.75 -0.125 1.296875q-0.109375 0.53125 -0.328125 0.875q-0.21875 0.328125 -0.546875 0.5q-0.328125 0.15625 -0.765625 0.15625q-0.46875 0 -0.8125 -0.1875q-0.328125 -0.1875 -0.546875 -0.5625q-0.1875 -0.296875 -0.296875 -0.765625q-0.09375 -0.46875 -0.125 -1.0625l3.546875 -2.625q0 0.265625 0 0.40625q0 0.140625 0 0.4375l0 1.53125zm13.742462 -0.375l0 -3.171875q0 -1.28125 -0.3125 -2.25q-0.296875 -0.984375 -0.84375 -1.65625q-0.5625 -0.65625 -1.375 -0.984375q-0.796875 -0.34375 -1.796875 -0.34375q-1.0 0 -1.796875 0.34375q-0.796875 0.328125 -1.34375 0.984375q-0.5625 0.671875 -0.875 1.65625q-0.296875 0.96875 -0.296875 2.25l0 3.171875q0 1.28125 0.296875 2.265625q0.3125 0.984375 0.875 1.640625q0.5625 0.65625 1.359375 1.0q0.8125 0.328125 1.796875 0.328125q1.0 0 1.796875 -0.328125q0.8125 -0.34375 1.359375 -1.0q0.5625 -0.65625 0.859375 -1.640625q0.296875 -0.984375 0.296875 -2.265625zm-6.09375 -1.09375q0 -0.28125 0 -0.421875q0 -0.15625 0 -0.59375l0 -1.46875q0 -0.734375 0.109375 -1.265625q0.125 -0.546875 0.359375 -0.875q0.21875 -0.328125 0.546875 -0.484375q0.328125 -0.15625 0.75 -0.15625q0.375 0 0.6875 0.125q0.3125 0.125 0.515625 0.375q0.265625 0.328125 0.40625 0.859375q0.140625 0.53125 0.171875 1.28125l-3.546875 2.625zm3.546875 1.46875q0 0.75 -0.125 1.296875q-0.109375 0.53125 -0.328125 0.875q-0.21875 0.328125 -0.546875 0.5q-0.328125 0.15625 -0.765625 0.15625q-0.46875 0 -0.8125 -0.1875q-0.328125 -0.1875 -0.546875 -0.5625q-0.1875 -0.296875 -0.296875 -0.765625q-0.09375 -0.46875 -0.125 -1.0625l3.546875 -2.625q0 0.265625 0 0.40625q0 0.140625 0 0.4375l0 1.53125zm13.742432 -0.375l0 -3.171875q0 -1.28125 -0.3125 -2.25q-0.296875 -0.984375 -0.84375 -1.65625q-0.5625 -0.65625 -1.375 -0.984375q-0.796875 -0.34375 -1.796875 -0.34375q-1.0 0 -1.796875 0.34375q-0.796875 0.328125 -1.34375 0.984375q-0.5625 0.671875 -0.875 1.65625q-0.296875 0.96875 -0.296875 2.25l0 3.171875q0 1.28125 0.296875 2.265625q0.3125 0.984375 0.875 1.640625q0.5625 0.65625 1.359375 1.0q0.8125 0.328125 1.796875 0.328125q1.0 0 1.796875 -0.328125q0.8125 -0.34375 1.359375 -1.0q0.5625 -0.65625 0.859375 -1.640625q0.296875 -0.984375 0.296875 -2.265625zm-6.09375 -1.09375q0 -0.28125 0 -0.421875q0 -0.15625 0 -0.59375l0 -1.46875q0 -0.734375 0.109375 -1.265625q0.125 -0.546875 0.359375 -0.875q0.21875 -0.328125 0.546875 -0.484375q0.328125 -0.15625 0.75 -0.15625q0.375 0 0.6875 0.125q0.3125 0.125 0.515625 0.375q0.265625 0.328125 0.40625 0.859375q0.140625 0.53125 0.171875 1.28125l-3.546875 2.625zm3.546875 1.46875q0 0.75 -0.125 1.296875q-0.109375 0.53125 -0.328125 0.875q-0.21875 0.328125 -0.546875 0.5q-0.328125 0.15625 -0.765625 0.15625q-0.46875 0 -0.8125 -0.1875q-0.328125 -0.1875 -0.546875 -0.5625q-0.1875 -0.296875 -0.296875 -0.765625q-0.09375 -0.46875 -0.125 -1.0625l3.546875 -2.625q0 0.265625 0 0.40625q0 0.140625 0 0.4375l0 1.53125zm13.742432 -0.375l0 -3.171875q0 -1.28125 -0.3125 -2.25q-0.296875 -0.984375 -0.84375 -1.65625q-0.5625 -0.65625 -1.375 -0.984375q-0.796875 -0.34375 -1.796875 -0.34375q-1.0 0 -1.796875 0.34375q-0.796875 0.328125 -1.34375 0.984375q-0.5625 0.671875 -0.875 1.65625q-0.296875 0.96875 -0.296875 2.25l0 3.171875q0 1.28125 0.296875 2.265625q0.3125 0.984375 0.875 1.640625q0.5625 0.65625 1.359375 1.0q0.8125 0.328125 1.796875 0.328125q1.0 0 1.796875 -0.328125q0.8125 -0.34375 1.359375 -1.0q0.5625 -0.65625 0.859375 -1.640625q0.296875 -0.984375 0.296875 -2.265625zm-6.09375 -1.09375q0 -0.28125 0 -0.421875q0 -0.15625 0 -0.59375l0 -1.46875q0 -0.734375 0.109375 -1.265625q0.125 -0.546875 0.359375 -0.875q0.21875 -0.328125 0.546875 -0.484375q0.328125 -0.15625 0.75 -0.15625q0.375 0 0.6875 0.125q0.3125 0.125 0.515625 0.375q0.265625 0.328125 0.40625 0.859375q0.140625 0.53125 0.171875 1.28125l-3.546875 2.625zm3.546875 1.46875q0 0.75 -0.125 1.296875q-0.109375 0.53125 -0.328125 0.875q-0.21875 0.328125 -0.546875 0.5q-0.328125 0.15625 -0.765625 0.15625q-0.46875 0 -0.8125 -0.1875q-0.328125 -0.1875 -0.546875 -0.5625q-0.1875 -0.296875 -0.296875 -0.765625q-0.09375 -0.46875 -0.125 -1.0625l3.546875 -2.625q0 0.265625 0 0.40625q0 0.140625 0 0.4375l0 1.53125zm13.742462 -0.375l0 -3.171875q0 -1.28125 -0.3125 -2.25q-0.296875 -0.984375 -0.84375 -1.65625q-0.5625 -0.65625 -1.375 -0.984375q-0.796875 -0.34375 -1.796875 -0.34375q-1.0 0 -1.796875 0.34375q-0.796875 0.328125 -1.34375 0.984375q-0.5625 0.671875 -0.875 1.65625q-0.296875 0.96875 -0.296875 2.25l0 3.171875q0 1.28125 0.296875 2.265625q0.3125 0.984375 0.875 1.640625q0.5625 0.65625 1.359375 1.0q0.8125 0.328125 1.796875 0.328125q1.0 0 1.796875 -0.328125q0.8125 -0.34375 1.359375 -1.0q0.5625 -0.65625 0.859375 -1.640625q0.296875 -0.984375 0.296875 -2.265625zm-6.09375 -1.09375q0 -0.28125 0 -0.421875q0 -0.15625 0 -0.59375l0 -1.46875q0 -0.734375 0.109375 -1.265625q0.125 -0.546875 0.359375 -0.875q0.21875 -0.328125 0.546875 -0.484375q0.328125 -0.15625 0.75 -0.15625q0.375 0 0.6875 0.125q0.3125 0.125 0.515625 0.375q0.265625 0.328125 0.40625 0.859375q0.140625 0.53125 0.171875 1.28125l-3.546875 2.625zm3.546875 1.46875q0 0.75 -0.125 1.296875q-0.109375 0.53125 -0.328125 0.875q-0.21875 0.328125 -0.546875 0.5q-0.328125 0.15625 -0.765625 0.15625q-0.46875 0 -0.8125 -0.1875q-0.328125 -0.1875 -0.546875 -0.5625q-0.1875 -0.296875 -0.296875 -0.765625q-0.09375 -0.46875 -0.125 -1.0625l3.546875 -2.625q0 0.265625 0 0.40625q0 0.140625 0 0.4375l0 1.53125zm11.304932 4.671875l0 -13.265625l-0.140625 0l-5.765625 2.09375l0 2.203125l3.34375 -1.203125l0 10.171875l2.5625 0z" fill-rule="nonzero"/><path fill="#000000" fill-opacity="0.0" d="m150.71654 355.7244l126.58269 0l0 42.015747l-126.58269 0z" fill-rule="evenodd"/><path fill="#000000" d="m176.70996 382.6444l0 -13.265625l-0.140625 0l-5.765625 2.09375l0 2.203125l3.34375 -1.203125l0 10.171875l2.5625 0zm11.195572 0l0 -13.265625l-0.140625 0l-5.765625 2.09375l0 2.203125l3.34375 -1.203125l0 10.171875l2.5625 0zm11.195572 0l0 -13.265625l-0.140625 0l-5.765625 2.09375l0 2.203125l3.34375 -1.203125l0 10.171875l2.5625 0zm11.195572 0l0 -13.265625l-0.140625 0l-5.765625 2.09375l0 2.203125l3.34375 -1.203125l0 10.171875l2.5625 0zm11.195572 0l0 -13.265625l-0.140625 0l-5.765625 2.09375l0 2.203125l3.34375 -1.203125l0 10.171875l2.5625 0zm11.195572 0l0 -13.265625l-0.140625 0l-5.765625 2.09375l0 2.203125l3.34375 -1.203125l0 10.171875l2.5625 0zm11.195572 0l0 -13.265625l-0.140625 0l-5.765625 2.09375l0 2.203125l3.34375 -1.203125l0 10.171875l2.5625 0zm11.195572 0l0 -13.265625l-0.140625 0l-5.765625 2.09375l0 2.203125l3.34375 -1.203125l0 10.171875l2.5625 0z" fill-rule="nonzero"/><path fill="#000000" fill-opacity="0.0" d="m294.6378 387.74802l-0.62991333 -41.007874" fill-rule="evenodd"/><path stroke="#666666" stroke-width="3.0" stroke-linejoin="round" stroke-linecap="butt" d="m294.6378 387.74802l-0.62991333 -41.007874" fill-rule="evenodd"/><path fill="#000000" fill-opacity="0.0" d="m230.71654 379.7244l126.58269 0l0 42.015747l-126.58269 0z" fill-rule="evenodd"/><path fill="#000000" d="m259.14746 401.59753l0 -3.171875q0 -1.28125 -0.3125 -2.25q-0.296875 -0.984375 -0.84375 -1.65625q-0.5625 -0.65625 -1.375 -0.984375q-0.796875 -0.34375 -1.796875 -0.34375q-1.0 0 -1.796875 0.34375q-0.796875 0.328125 -1.34375 0.984375q-0.5625 0.671875 -0.875 1.65625q-0.296875 0.96875 -0.296875 2.25l0 3.171875q0 1.28125 0.296875 2.265625q0.3125 0.984375 0.875 1.640625q0.5625 0.65625 1.359375 1.0q0.8125 0.328125 1.796875 0.328125q1.0 0 1.796875 -0.328125q0.8125 -0.34375 1.359375 -1.0q0.5625 -0.65625 0.859375 -1.640625q0.296875 -0.984375 0.296875 -2.265625zm-6.09375 -1.09375q0 -0.28125 0 -0.421875q0 -0.15625 0 -0.59375l0 -1.46875q0 -0.734375 0.109375 -1.265625q0.125 -0.546875 0.359375 -0.875q0.21875 -0.328125 0.546875 -0.484375q0.328125 -0.15625 0.75 -0.15625q0.375 0 0.6875 0.125q0.3125 0.125 0.515625 0.375q0.265625 0.328125 0.40625 0.859375q0.140625 0.53125 0.171875 1.28125l-3.546875 2.625zm3.546875 1.46875q0 0.75 -0.125 1.296875q-0.109375 0.53125 -0.328125 0.875q-0.21875 0.328125 -0.546875 0.5q-0.328125 0.15625 -0.765625 0.15625q-0.46875 0 -0.8125 -0.1875q-0.328125 -0.1875 -0.546875 -0.5625q-0.1875 -0.296875 -0.296875 -0.765625q-0.09375 -0.46875 -0.125 -1.0625l3.546875 -2.625q0 0.265625 0 0.40625q0 0.140625 0 0.4375l0 1.53125zm13.742462 -0.375l0 -3.171875q0 -1.28125 -0.3125 -2.25q-0.296875 -0.984375 -0.84375 -1.65625q-0.5625 -0.65625 -1.375 -0.984375q-0.796875 -0.34375 -1.796875 -0.34375q-1.0 0 -1.796875 0.34375q-0.796875 0.328125 -1.34375 0.984375q-0.5625 0.671875 -0.875 1.65625q-0.296875 0.96875 -0.296875 2.25l0 3.171875q0 1.28125 0.296875 2.265625q0.3125 0.984375 0.875 1.640625q0.5625 0.65625 1.359375 1.0q0.8125 0.328125 1.796875 0.328125q1.0 0 1.796875 -0.328125q0.8125 -0.34375 1.359375 -1.0q0.5625 -0.65625 0.859375 -1.640625q0.296875 -0.984375 0.296875 -2.265625zm-6.09375 -1.09375q0 -0.28125 0 -0.421875q0 -0.15625 0 -0.59375l0 -1.46875q0 -0.734375 0.109375 -1.265625q0.125 -0.546875 0.359375 -0.875q0.21875 -0.328125 0.546875 -0.484375q0.328125 -0.15625 0.75 -0.15625q0.375 0 0.6875 0.125q0.3125 0.125 0.515625 0.375q0.265625 0.328125 0.40625 0.859375q0.140625 0.53125 0.171875 1.28125l-3.546875 2.625zm3.546875 1.46875q0 0.75 -0.125 1.296875q-0.109375 0.53125 -0.328125 0.875q-0.21875 0.328125 -0.546875 0.5q-0.328125 0.15625 -0.765625 0.15625q-0.46875 0 -0.8125 -0.1875q-0.328125 -0.1875 -0.546875 -0.5625q-0.1875 -0.296875 -0.296875 -0.765625q-0.09375 -0.46875 -0.125 -1.0625l3.546875 -2.625q0 0.265625 0 0.40625q0 0.140625 0 0.4375l0 1.53125zm13.742432 -0.375l0 -3.171875q0 -1.28125 -0.3125 -2.25q-0.296875 -0.984375 -0.84375 -1.65625q-0.5625 -0.65625 -1.375 -0.984375q-0.796875 -0.34375 -1.796875 -0.34375q-1.0 0 -1.796875 0.34375q-0.796875 0.328125 -1.34375 0.984375q-0.5625 0.671875 -0.875 1.65625q-0.296875 0.96875 -0.296875 2.25l0 3.171875q0 1.28125 0.296875 2.265625q0.3125 0.984375 0.875 1.640625q0.5625 0.65625 1.359375 1.0q0.8125 0.328125 1.796875 0.328125q1.0 0 1.796875 -0.328125q0.8125 -0.34375 1.359375 -1.0q0.5625 -0.65625 0.859375 -1.640625q0.296875 -0.984375 0.296875 -2.265625zm-6.09375 -1.09375q0 -0.28125 0 -0.421875q0 -0.15625 0 -0.59375l0 -1.46875q0 -0.734375 0.109375 -1.265625q0.125 -0.546875 0.359375 -0.875q0.21875 -0.328125 0.546875 -0.484375q0.328125 -0.15625 0.75 -0.15625q0.375 0 0.6875 0.125q0.3125 0.125 0.515625 0.375q0.265625 0.328125 0.40625 0.859375q0.140625 0.53125 0.171875 1.28125l-3.546875 2.625zm3.546875 1.46875q0 0.75 -0.125 1.296875q-0.109375 0.53125 -0.328125 0.875q-0.21875 0.328125 -0.546875 0.5q-0.328125 0.15625 -0.765625 0.15625q-0.46875 0 -0.8125 -0.1875q-0.328125 -0.1875 -0.546875 -0.5625q-0.1875 -0.296875 -0.296875 -0.765625q-0.09375 -0.46875 -0.125 -1.0625l3.546875 -2.625q0 0.265625 0 0.40625q0 0.140625 0 0.4375l0 1.53125zm13.742462 -0.375l0 -3.171875q0 -1.28125 -0.3125 -2.25q-0.296875 -0.984375 -0.84375 -1.65625q-0.5625 -0.65625 -1.375 -0.984375q-0.796875 -0.34375 -1.796875 -0.34375q-1.0 0 -1.796875 0.34375q-0.796875 0.328125 -1.34375 0.984375q-0.5625 0.671875 -0.875 1.65625q-0.296875 0.96875 -0.296875 2.25l0 3.171875q0 1.28125 0.296875 2.265625q0.3125 0.984375 0.875 1.640625q0.5625 0.65625 1.359375 1.0q0.8125 0.328125 1.796875 0.328125q1.0 0 1.796875 -0.328125q0.8125 -0.34375 1.359375 -1.0q0.5625 -0.65625 0.859375 -1.640625q0.296875 -0.984375 0.296875 -2.265625zm-6.09375 -1.09375q0 -0.28125 0 -0.421875q0 -0.15625 0 -0.59375l0 -1.46875q0 -0.734375 0.109375 -1.265625q0.125 -0.546875 0.359375 -0.875q0.21875 -0.328125 0.546875 -0.484375q0.328125 -0.15625 0.75 -0.15625q0.375 0 0.6875 0.125q0.3125 0.125 0.515625 0.375q0.265625 0.328125 0.40625 0.859375q0.140625 0.53125 0.171875 1.28125l-3.546875 2.625zm3.546875 1.46875q0 0.75 -0.125 1.296875q-0.109375 0.53125 -0.328125 0.875q-0.21875 0.328125 -0.546875 0.5q-0.328125 0.15625 -0.765625 0.15625q-0.46875 0 -0.8125 -0.1875q-0.328125 -0.1875 -0.546875 -0.5625q-0.1875 -0.296875 -0.296875 -0.765625q-0.09375 -0.46875 -0.125 -1.0625l3.546875 -2.625q0 0.265625 0 0.40625q0 0.140625 0 0.4375l0 1.53125zm13.742432 -0.375l0 -3.171875q0 -1.28125 -0.3125 -2.25q-0.296875 -0.984375 -0.84375 -1.65625q-0.5625 -0.65625 -1.375 -0.984375q-0.796875 -0.34375 -1.796875 -0.34375q-1.0 0 -1.796875 0.34375q-0.796875 0.328125 -1.34375 0.984375q-0.5625 0.671875 -0.875 1.65625q-0.296875 0.96875 -0.296875 2.25l0 3.171875q0 1.28125 0.296875 2.265625q0.3125 0.984375 0.875 1.640625q0.5625 0.65625 1.359375 1.0q0.8125 0.328125 1.796875 0.328125q1.0 0 1.796875 -0.328125q0.8125 -0.34375 1.359375 -1.0q0.5625 -0.65625 0.859375 -1.640625q0.296875 -0.984375 0.296875 -2.265625zm-6.09375 -1.09375q0 -0.28125 0 -0.421875q0 -0.15625 0 -0.59375l0 -1.46875q0 -0.734375 0.109375 -1.265625q0.125 -0.546875 0.359375 -0.875q0.21875 -0.328125 0.546875 -0.484375q0.328125 -0.15625 0.75 -0.15625q0.375 0 0.6875 0.125q0.3125 0.125 0.515625 0.375q0.265625 0.328125 0.40625 0.859375q0.140625 0.53125 0.171875 1.28125l-3.546875 2.625zm3.546875 1.46875q0 0.75 -0.125 1.296875q-0.109375 0.53125 -0.328125 0.875q-0.21875 0.328125 -0.546875 0.5q-0.328125 0.15625 -0.765625 0.15625q-0.46875 0 -0.8125 -0.1875q-0.328125 -0.1875 -0.546875 -0.5625q-0.1875 -0.296875 -0.296875 -0.765625q-0.09375 -0.46875 -0.125 -1.0625l3.546875 -2.625q0 0.265625 0 0.40625q0 0.140625 0 0.4375l0 1.53125zm13.742432 -0.375l0 -3.171875q0 -1.28125 -0.3125 -2.25q-0.296875 -0.984375 -0.84375 -1.65625q-0.5625 -0.65625 -1.375 -0.984375q-0.796875 -0.34375 -1.796875 -0.34375q-1.0 0 -1.796875 0.34375q-0.796875 0.328125 -1.34375 0.984375q-0.5625 0.671875 -0.875 1.65625q-0.296875 0.96875 -0.296875 2.25l0 3.171875q0 1.28125 0.296875 2.265625q0.3125 0.984375 0.875 1.640625q0.5625 0.65625 1.359375 1.0q0.8125 0.328125 1.796875 0.328125q1.0 0 1.796875 -0.328125q0.8125 -0.34375 1.359375 -1.0q0.5625 -0.65625 0.859375 -1.640625q0.296875 -0.984375 0.296875 -2.265625zm-6.09375 -1.09375q0 -0.28125 0 -0.421875q0 -0.15625 0 -0.59375l0 -1.46875q0 -0.734375 0.109375 -1.265625q0.125 -0.546875 0.359375 -0.875q0.21875 -0.328125 0.546875 -0.484375q0.328125 -0.15625 0.75 -0.15625q0.375 0 0.6875 0.125q0.3125 0.125 0.515625 0.375q0.265625 0.328125 0.40625 0.859375q0.140625 0.53125 0.171875 1.28125l-3.546875 2.625zm3.546875 1.46875q0 0.75 -0.125 1.296875q-0.109375 0.53125 -0.328125 0.875q-0.21875 0.328125 -0.546875 0.5q-0.328125 0.15625 -0.765625 0.15625q-0.46875 0 -0.8125 -0.1875q-0.328125 -0.1875 -0.546875 -0.5625q-0.1875 -0.296875 -0.296875 -0.765625q-0.09375 -0.46875 -0.125 -1.0625l3.546875 -2.625q0 0.265625 0 0.40625q0 0.140625 0 0.4375l0 1.53125zm13.742462 -0.375l0 -3.171875q0 -1.28125 -0.3125 -2.25q-0.296875 -0.984375 -0.84375 -1.65625q-0.5625 -0.65625 -1.375 -0.984375q-0.796875 -0.34375 -1.796875 -0.34375q-1.0 0 -1.796875 0.34375q-0.796875 0.328125 -1.34375 0.984375q-0.5625 0.671875 -0.875 1.65625q-0.296875 0.96875 -0.296875 2.25l0 3.171875q0 1.28125 0.296875 2.265625q0.3125 0.984375 0.875 1.640625q0.5625 0.65625 1.359375 1.0q0.8125 0.328125 1.796875 0.328125q1.0 0 1.796875 -0.328125q0.8125 -0.34375 1.359375 -1.0q0.5625 -0.65625 0.859375 -1.640625q0.296875 -0.984375 0.296875 -2.265625zm-6.09375 -1.09375q0 -0.28125 0 -0.421875q0 -0.15625 0 -0.59375l0 -1.46875q0 -0.734375 0.109375 -1.265625q0.125 -0.546875 0.359375 -0.875q0.21875 -0.328125 0.546875 -0.484375q0.328125 -0.15625 0.75 -0.15625q0.375 0 0.6875 0.125q0.3125 0.125 0.515625 0.375q0.265625 0.328125 0.40625 0.859375q0.140625 0.53125 0.171875 1.28125l-3.546875 2.625zm3.546875 1.46875q0 0.75 -0.125 1.296875q-0.109375 0.53125 -0.328125 0.875q-0.21875 0.328125 -0.546875 0.5q-0.328125 0.15625 -0.765625 0.15625q-0.46875 0 -0.8125 -0.1875q-0.328125 -0.1875 -0.546875 -0.5625q-0.1875 -0.296875 -0.296875 -0.765625q-0.09375 -0.46875 -0.125 -1.0625l3.546875 -2.625q0 0.265625 0 0.40625q0 0.140625 0 0.4375l0 1.53125zm13.742432 -0.375l0 -3.171875q0 -1.28125 -0.3125 -2.25q-0.296875 -0.984375 -0.84375 -1.65625q-0.5625 -0.65625 -1.375 -0.984375q-0.796875 -0.34375 -1.796875 -0.34375q-1.0 0 -1.796875 0.34375q-0.796875 0.328125 -1.34375 0.984375q-0.5625 0.671875 -0.875 1.65625q-0.296875 0.96875 -0.296875 2.25l0 3.171875q0 1.28125 0.296875 2.265625q0.3125 0.984375 0.875 1.640625q0.5625 0.65625 1.359375 1.0q0.8125 0.328125 1.796875 0.328125q1.0 0 1.796875 -0.328125q0.8125 -0.34375 1.359375 -1.0q0.5625 -0.65625 0.859375 -1.640625q0.296875 -0.984375 0.296875 -2.265625zm-6.09375 -1.09375q0 -0.28125 0 -0.421875q0 -0.15625 0 -0.59375l0 -1.46875q0 -0.734375 0.109375 -1.265625q0.125 -0.546875 0.359375 -0.875q0.21875 -0.328125 0.546875 -0.484375q0.328125 -0.15625 0.75 -0.15625q0.375 0 0.6875 0.125q0.3125 0.125 0.515625 0.375q0.265625 0.328125 0.40625 0.859375q0.140625 0.53125 0.171875 1.28125l-3.546875 2.625zm3.546875 1.46875q0 0.75 -0.125 1.296875q-0.109375 0.53125 -0.328125 0.875q-0.21875 0.328125 -0.546875 0.5q-0.328125 0.15625 -0.765625 0.15625q-0.46875 0 -0.8125 -0.1875q-0.328125 -0.1875 -0.546875 -0.5625q-0.1875 -0.296875 -0.296875 -0.765625q-0.09375 -0.46875 -0.125 -1.0625l3.546875 -2.625q0 0.265625 0 0.40625q0 0.140625 0 0.4375l0 1.53125z" fill-rule="nonzero"/><path fill="#000000" fill-opacity="0.0" d="m425.1942 212.8189l41.007874 -0.62991333" fill-rule="evenodd"/><path stroke="#666666" stroke-width="3.0" stroke-linejoin="round" stroke-linecap="butt" d="m425.1942 212.8189l41.007874 -0.62991333" fill-rule="evenodd"/><path fill="#000000" fill-opacity="0.0" d="m452.09186 191.72441l126.5827 0l0 42.015747l-126.5827 0z" fill-rule="evenodd"/><path fill="#000000" d="m480.5228 213.59753l0 -3.171875q0 -1.28125 -0.3125 -2.25q-0.296875 -0.984375 -0.84375 -1.65625q-0.5625 -0.65625 -1.375 -0.984375q-0.796875 -0.34375 -1.796875 -0.34375q-1.0 0 -1.796875 0.34375q-0.796875 0.328125 -1.34375 0.984375q-0.5625 0.671875 -0.875 1.65625q-0.296875 0.96875 -0.296875 2.25l0 3.171875q0 1.28125 0.296875 2.265625q0.3125 0.984375 0.875 1.640625q0.5625 0.65625 1.359375 1.0q0.8125 0.328125 1.796875 0.328125q1.0 0 1.796875 -0.328125q0.8125 -0.34375 1.359375 -1.0q0.5625 -0.65625 0.859375 -1.640625q0.296875 -0.984375 0.296875 -2.265625zm-6.09375 -1.09375q0 -0.28125 0 -0.421875q0 -0.15625 0 -0.59375l0 -1.46875q0 -0.734375 0.109375 -1.265625q0.125 -0.546875 0.359375 -0.875q0.21875 -0.328125 0.546875 -0.484375q0.328125 -0.15625 0.75 -0.15625q0.375 0 0.6875 0.125q0.3125 0.125 0.515625 0.375q0.265625 0.328125 0.40625 0.859375q0.140625 0.53125 0.171875 1.28125l-3.546875 2.625zm3.546875 1.46875q0 0.75 -0.125 1.296875q-0.109375 0.53125 -0.328125 0.875q-0.21875 0.328125 -0.546875 0.5q-0.328125 0.15625 -0.765625 0.15625q-0.46875 0 -0.8125 -0.1875q-0.328125 -0.1875 -0.546875 -0.5625q-0.1875 -0.296875 -0.296875 -0.765625q-0.09375 -0.46875 -0.125 -1.0625l3.546875 -2.625q0 0.265625 0 0.40625q0 0.140625 0 0.4375l0 1.53125zm11.304932 4.671875l0 -13.265625l-0.140625 0l-5.765625 2.09375l0 2.203125l3.34375 -1.203125l0 10.171875l2.5625 0zm13.633087 -5.046875l0 -3.171875q0 -1.28125 -0.3125 -2.25q-0.296875 -0.984375 -0.84375 -1.65625q-0.5625 -0.65625 -1.375 -0.984375q-0.796875 -0.34375 -1.796875 -0.34375q-1.0 0 -1.796875 0.34375q-0.796875 0.328125 -1.34375 0.984375q-0.5625 0.671875 -0.875 1.65625q-0.296875 0.96875 -0.296875 2.25l0 3.171875q0 1.28125 0.296875 2.265625q0.3125 0.984375 0.875 1.640625q0.5625 0.65625 1.359375 1.0q0.8125 0.328125 1.796875 0.328125q1.0 0 1.796875 -0.328125q0.8125 -0.34375 1.359375 -1.0q0.5625 -0.65625 0.859375 -1.640625q0.296875 -0.984375 0.296875 -2.265625zm-6.09375 -1.09375q0 -0.28125 0 -0.421875q0 -0.15625 0 -0.59375l0 -1.46875q0 -0.734375 0.109375 -1.265625q0.125 -0.546875 0.359375 -0.875q0.21875 -0.328125 0.546875 -0.484375q0.328125 -0.15625 0.75 -0.15625q0.375 0 0.6875 0.125q0.3125 0.125 0.515625 0.375q0.265625 0.328125 0.40625 0.859375q0.140625 0.53125 0.171875 1.28125l-3.546875 2.625zm3.546875 1.46875q0 0.75 -0.125 1.296875q-0.109375 0.53125 -0.328125 0.875q-0.21875 0.328125 -0.546875 0.5q-0.328125 0.15625 -0.765625 0.15625q-0.46875 0 -0.8125 -0.1875q-0.328125 -0.1875 -0.546875 -0.5625q-0.1875 -0.296875 -0.296875 -0.765625q-0.09375 -0.46875 -0.125 -1.0625l3.546875 -2.625q0 0.265625 0 0.40625q0 0.140625 0 0.4375l0 1.53125zm13.742432 -0.375l0 -3.171875q0 -1.28125 -0.3125 -2.25q-0.296875 -0.984375 -0.84375 -1.65625q-0.5625 -0.65625 -1.375 -0.984375q-0.796875 -0.34375 -1.796875 -0.34375q-1.0 0 -1.796875 0.34375q-0.796875 0.328125 -1.34375 0.984375q-0.5625 0.671875 -0.875 1.65625q-0.296875 0.96875 -0.296875 2.25l0 3.171875q0 1.28125 0.296875 2.265625q0.3125 0.984375 0.875 1.640625q0.5625 0.65625 1.359375 1.0q0.8125 0.328125 1.796875 0.328125q1.0 0 1.796875 -0.328125q0.8125 -0.34375 1.359375 -1.0q0.5625 -0.65625 0.859375 -1.640625q0.296875 -0.984375 0.296875 -2.265625zm-6.09375 -1.09375q0 -0.28125 0 -0.421875q0 -0.15625 0 -0.59375l0 -1.46875q0 -0.734375 0.109375 -1.265625q0.125 -0.546875 0.359375 -0.875q0.21875 -0.328125 0.546875 -0.484375q0.328125 -0.15625 0.75 -0.15625q0.375 0 0.6875 0.125q0.3125 0.125 0.515625 0.375q0.265625 0.328125 0.40625 0.859375q0.140625 0.53125 0.171875 1.28125l-3.546875 2.625zm3.546875 1.46875q0 0.75 -0.125 1.296875q-0.109375 0.53125 -0.328125 0.875q-0.21875 0.328125 -0.546875 0.5q-0.328125 0.15625 -0.765625 0.15625q-0.46875 0 -0.8125 -0.1875q-0.328125 -0.1875 -0.546875 -0.5625q-0.1875 -0.296875 -0.296875 -0.765625q-0.09375 -0.46875 -0.125 -1.0625l3.546875 -2.625q0 0.265625 0 0.40625q0 0.140625 0 0.4375l0 1.53125zm13.742432 -0.375l0 -3.171875q0 -1.28125 -0.3125 -2.25q-0.296875 -0.984375 -0.84375 -1.65625q-0.5625 -0.65625 -1.375 -0.984375q-0.796875 -0.34375 -1.796875 -0.34375q-1.0 0 -1.796875 0.34375q-0.796875 0.328125 -1.34375 0.984375q-0.5625 0.671875 -0.875 1.65625q-0.296875 0.96875 -0.296875 2.25l0 3.171875q0 1.28125 0.296875 2.265625q0.3125 0.984375 0.875 1.640625q0.5625 0.65625 1.359375 1.0q0.8125 0.328125 1.796875 0.328125q1.0 0 1.796875 -0.328125q0.8125 -0.34375 1.359375 -1.0q0.5625 -0.65625 0.859375 -1.640625q0.296875 -0.984375 0.296875 -2.265625zm-6.09375 -1.09375q0 -0.28125 0 -0.421875q0 -0.15625 0 -0.59375l0 -1.46875q0 -0.734375 0.109375 -1.265625q0.125 -0.546875 0.359375 -0.875q0.21875 -0.328125 0.546875 -0.484375q0.328125 -0.15625 0.75 -0.15625q0.375 0 0.6875 0.125q0.3125 0.125 0.515625 0.375q0.265625 0.328125 0.40625 0.859375q0.140625 0.53125 0.171875 1.28125l-3.546875 2.625zm3.546875 1.46875q0 0.75 -0.125 1.296875q-0.109375 0.53125 -0.328125 0.875q-0.21875 0.328125 -0.546875 0.5q-0.328125 0.15625 -0.765625 0.15625q-0.46875 0 -0.8125 -0.1875q-0.328125 -0.1875 -0.546875 -0.5625q-0.1875 -0.296875 -0.296875 -0.765625q-0.09375 -0.46875 -0.125 -1.0625l3.546875 -2.625q0 0.265625 0 0.40625q0 0.140625 0 0.4375l0 1.53125zm13.742493 -0.375l0 -3.171875q0 -1.28125 -0.3125 -2.25q-0.296875 -0.984375 -0.84375 -1.65625q-0.5625 -0.65625 -1.375 -0.984375q-0.796875 -0.34375 -1.796875 -0.34375q-1.0 0 -1.796875 0.34375q-0.796875 0.328125 -1.34375 0.984375q-0.5625 0.671875 -0.875 1.65625q-0.296875 0.96875 -0.296875 2.25l0 3.171875q0 1.28125 0.296875 2.265625q0.3125 0.984375 0.875 1.640625q0.5625 0.65625 1.359375 1.0q0.8125 0.328125 1.796875 0.328125q1.0 0 1.796875 -0.328125q0.8125 -0.34375 1.359375 -1.0q0.5625 -0.65625 0.859375 -1.640625q0.296875 -0.984375 0.296875 -2.265625zm-6.09375 -1.09375q0 -0.28125 0 -0.421875q0 -0.15625 0 -0.59375l0 -1.46875q0 -0.734375 0.109375 -1.265625q0.125 -0.546875 0.359375 -0.875q0.21875 -0.328125 0.546875 -0.484375q0.328125 -0.15625 0.75 -0.15625q0.375 0 0.6875 0.125q0.3125 0.125 0.515625 0.375q0.265625 0.328125 0.40625 0.859375q0.140625 0.53125 0.171875 1.28125l-3.546875 2.625zm3.546875 1.46875q0 0.75 -0.125 1.296875q-0.109375 0.53125 -0.328125 0.875q-0.21875 0.328125 -0.546875 0.5q-0.328125 0.15625 -0.765625 0.15625q-0.46875 0 -0.8125 -0.1875q-0.328125 -0.1875 -0.546875 -0.5625q-0.1875 -0.296875 -0.296875 -0.765625q-0.09375 -0.46875 -0.125 -1.0625l3.546875 -2.625q0 0.265625 0 0.40625q0 0.140625 0 0.4375l0 1.53125zm13.742432 -0.375l0 -3.171875q0 -1.28125 -0.3125 -2.25q-0.296875 -0.984375 -0.84375 -1.65625q-0.5625 -0.65625 -1.375 -0.984375q-0.796875 -0.34375 -1.796875 -0.34375q-1.0 0 -1.796875 0.34375q-0.796875 0.328125 -1.34375 0.984375q-0.5625 0.671875 -0.875 1.65625q-0.296875 0.96875 -0.296875 2.25l0 3.171875q0 1.28125 0.296875 2.265625q0.3125 0.984375 0.875 1.640625q0.5625 0.65625 1.359375 1.0q0.8125 0.328125 1.796875 0.328125q1.0 0 1.796875 -0.328125q0.8125 -0.34375 1.359375 -1.0q0.5625 -0.65625 0.859375 -1.640625q0.296875 -0.984375 0.296875 -2.265625zm-6.09375 -1.09375q0 -0.28125 0 -0.421875q0 -0.15625 0 -0.59375l0 -1.46875q0 -0.734375 0.109375 -1.265625q0.125 -0.546875 0.359375 -0.875q0.21875 -0.328125 0.546875 -0.484375q0.328125 -0.15625 0.75 -0.15625q0.375 0 0.6875 0.125q0.3125 0.125 0.515625 0.375q0.265625 0.328125 0.40625 0.859375q0.140625 0.53125 0.171875 1.28125l-3.546875 2.625zm3.546875 1.46875q0 0.75 -0.125 1.296875q-0.109375 0.53125 -0.328125 0.875q-0.21875 0.328125 -0.546875 0.5q-0.328125 0.15625 -0.765625 0.15625q-0.46875 0 -0.8125 -0.1875q-0.328125 -0.1875 -0.546875 -0.5625q-0.1875 -0.296875 -0.296875 -0.765625q-0.09375 -0.46875 -0.125 -1.0625l3.546875 -2.625q0 0.265625 0 0.40625q0 0.140625 0 0.4375l0 1.53125zm13.742432 -0.375l0 -3.171875q0 -1.28125 -0.3125 -2.25q-0.296875 -0.984375 -0.84375 -1.65625q-0.5625 -0.65625 -1.375 -0.984375q-0.796875 -0.34375 -1.796875 -0.34375q-1.0 0 -1.796875 0.34375q-0.796875 0.328125 -1.34375 0.984375q-0.5625 0.671875 -0.875 1.65625q-0.296875 0.96875 -0.296875 2.25l0 3.171875q0 1.28125 0.296875 2.265625q0.3125 0.984375 0.875 1.640625q0.5625 0.65625 1.359375 1.0q0.8125 0.328125 1.796875 0.328125q1.0 0 1.796875 -0.328125q0.8125 -0.34375 1.359375 -1.0q0.5625 -0.65625 0.859375 -1.640625q0.296875 -0.984375 0.296875 -2.265625zm-6.09375 -1.09375q0 -0.28125 0 -0.421875q0 -0.15625 0 -0.59375l0 -1.46875q0 -0.734375 0.109375 -1.265625q0.125 -0.546875 0.359375 -0.875q0.21875 -0.328125 0.546875 -0.484375q0.328125 -0.15625 0.75 -0.15625q0.375 0 0.6875 0.125q0.3125 0.125 0.515625 0.375q0.265625 0.328125 0.40625 0.859375q0.140625 0.53125 0.171875 1.28125l-3.546875 2.625zm3.546875 1.46875q0 0.75 -0.125 1.296875q-0.109375 0.53125 -0.328125 0.875q-0.21875 0.328125 -0.546875 0.5q-0.328125 0.15625 -0.765625 0.15625q-0.46875 0 -0.8125 -0.1875q-0.328125 -0.1875 -0.546875 -0.5625q-0.1875 -0.296875 -0.296875 -0.765625q-0.09375 -0.46875 -0.125 -1.0625l3.546875 -2.625q0 0.265625 0 0.40625q0 0.140625 0 0.4375l0 1.53125z" fill-rule="nonzero"/><path fill="#000000" fill-opacity="0.0" d="m441.09186 215.72441l126.5827 0l0 42.01573l-126.5827 0z" fill-rule="evenodd"/><path fill="#000000" d="m469.5228 237.59753l0 -3.171875q0 -1.28125 -0.3125 -2.25q-0.296875 -0.984375 -0.84375 -1.65625q-0.5625 -0.65625 -1.375 -0.984375q-0.796875 -0.34375 -1.796875 -0.34375q-1.0 0 -1.796875 0.34375q-0.796875 0.328125 -1.34375 0.984375q-0.5625 0.671875 -0.875 1.65625q-0.296875 0.96875 -0.296875 2.25l0 3.171875q0 1.28125 0.296875 2.265625q0.3125 0.984375 0.875 1.640625q0.5625 0.65625 1.359375 1.0q0.8125 0.328125 1.796875 0.328125q1.0 0 1.796875 -0.328125q0.8125 -0.34375 1.359375 -1.0q0.5625 -0.65625 0.859375 -1.640625q0.296875 -0.984375 0.296875 -2.265625zm-6.09375 -1.09375q0 -0.28125 0 -0.421875q0 -0.15625 0 -0.59375l0 -1.46875q0 -0.734375 0.109375 -1.265625q0.125 -0.546875 0.359375 -0.875q0.21875 -0.328125 0.546875 -0.484375q0.328125 -0.15625 0.75 -0.15625q0.375 0 0.6875 0.125q0.3125 0.125 0.515625 0.375q0.265625 0.328125 0.40625 0.859375q0.140625 0.53125 0.171875 1.28125l-3.546875 2.625zm3.546875 1.46875q0 0.75 -0.125 1.296875q-0.109375 0.53125 -0.328125 0.875q-0.21875 0.328125 -0.546875 0.5q-0.328125 0.15625 -0.765625 0.15625q-0.46875 0 -0.8125 -0.1875q-0.328125 -0.1875 -0.546875 -0.5625q-0.1875 -0.296875 -0.296875 -0.765625q-0.09375 -0.46875 -0.125 -1.0625l3.546875 -2.625q0 0.265625 0 0.40625q0 0.140625 0 0.4375l0 1.53125zm13.742432 -0.375l0 -3.171875q0 -1.28125 -0.3125 -2.25q-0.296875 -0.984375 -0.84375 -1.65625q-0.5625 -0.65625 -1.375 -0.984375q-0.796875 -0.34375 -1.796875 -0.34375q-1.0 0 -1.796875 0.34375q-0.796875 0.328125 -1.34375 0.984375q-0.5625 0.671875 -0.875 1.65625q-0.296875 0.96875 -0.296875 2.25l0 3.171875q0 1.28125 0.296875 2.265625q0.3125 0.984375 0.875 1.640625q0.5625 0.65625 1.359375 1.0q0.8125 0.328125 1.796875 0.328125q1.0 0 1.796875 -0.328125q0.8125 -0.34375 1.359375 -1.0q0.5625 -0.65625 0.859375 -1.640625q0.296875 -0.984375 0.296875 -2.265625zm-6.09375 -1.09375q0 -0.28125 0 -0.421875q0 -0.15625 0 -0.59375l0 -1.46875q0 -0.734375 0.109375 -1.265625q0.125 -0.546875 0.359375 -0.875q0.21875 -0.328125 0.546875 -0.484375q0.328125 -0.15625 0.75 -0.15625q0.375 0 0.6875 0.125q0.3125 0.125 0.515625 0.375q0.265625 0.328125 0.40625 0.859375q0.140625 0.53125 0.171875 1.28125l-3.546875 2.625zm3.546875 1.46875q0 0.75 -0.125 1.296875q-0.109375 0.53125 -0.328125 0.875q-0.21875 0.328125 -0.546875 0.5q-0.328125 0.15625 -0.765625 0.15625q-0.46875 0 -0.8125 -0.1875q-0.328125 -0.1875 -0.546875 -0.5625q-0.1875 -0.296875 -0.296875 -0.765625q-0.09375 -0.46875 -0.125 -1.0625l3.546875 -2.625q0 0.265625 0 0.40625q0 0.140625 0 0.4375l0 1.53125zm11.304962 4.671875l0 -13.265625l-0.140625 0l-5.765625 2.09375l0 2.203125l3.34375 -1.203125l0 10.171875l2.5625 0zm11.195557 0l0 -13.265625l-0.140625 0l-5.765625 2.09375l0 2.203125l3.34375 -1.203125l0 10.171875l2.5625 0zm11.195587 0l0 -13.265625l-0.140625 0l-5.765625 2.09375l0 2.203125l3.34375 -1.203125l0 10.171875l2.5625 0zm11.195587 0l0 -13.265625l-0.140625 0l-5.765625 2.09375l0 2.203125l3.34375 -1.203125l0 10.171875l2.5625 0zm11.195557 0l0 -13.265625l-0.140625 0l-5.765625 2.09375l0 2.203125l3.34375 -1.203125l0 10.171875l2.5625 0zm11.195557 0l0 -13.265625l-0.140625 0l-5.765625 2.09375l0 2.203125l3.34375 -1.203125l0 10.171875l2.5625 0z" fill-rule="nonzero"/><path fill="#000000" fill-opacity="0.0" d="m441.09186 167.72441l126.5827 0l0 42.015747l-126.5827 0z" fill-rule="evenodd"/><path fill="#000000" d="m469.5228 189.59753l0 -3.171875q0 -1.28125 -0.3125 -2.25q-0.296875 -0.984375 -0.84375 -1.65625q-0.5625 -0.65625 -1.375 -0.984375q-0.796875 -0.34375 -1.796875 -0.34375q-1.0 0 -1.796875 0.34375q-0.796875 0.328125 -1.34375 0.984375q-0.5625 0.671875 -0.875 1.65625q-0.296875 0.96875 -0.296875 2.25l0 3.171875q0 1.28125 0.296875 2.265625q0.3125 0.984375 0.875 1.640625q0.5625 0.65625 1.359375 1.0q0.8125 0.328125 1.796875 0.328125q1.0 0 1.796875 -0.328125q0.8125 -0.34375 1.359375 -1.0q0.5625 -0.65625 0.859375 -1.640625q0.296875 -0.984375 0.296875 -2.265625zm-6.09375 -1.09375q0 -0.28125 0 -0.421875q0 -0.15625 0 -0.59375l0 -1.46875q0 -0.734375 0.109375 -1.265625q0.125 -0.546875 0.359375 -0.875q0.21875 -0.328125 0.546875 -0.484375q0.328125 -0.15625 0.75 -0.15625q0.375 0 0.6875 0.125q0.3125 0.125 0.515625 0.375q0.265625 0.328125 0.40625 0.859375q0.140625 0.53125 0.171875 1.28125l-3.546875 2.625zm3.546875 1.46875q0 0.75 -0.125 1.296875q-0.109375 0.53125 -0.328125 0.875q-0.21875 0.328125 -0.546875 0.5q-0.328125 0.15625 -0.765625 0.15625q-0.46875 0 -0.8125 -0.1875q-0.328125 -0.1875 -0.546875 -0.5625q-0.1875 -0.296875 -0.296875 -0.765625q-0.09375 -0.46875 -0.125 -1.0625l3.546875 -2.625q0 0.265625 0 0.40625q0 0.140625 0 0.4375l0 1.53125zm11.304932 4.671875l0 -13.265625l-0.140625 0l-5.765625 2.09375l0 2.203125l3.34375 -1.203125l0 10.171875l2.5625 0zm13.633087 -5.046875l0 -3.171875q0 -1.28125 -0.3125 -2.25q-0.296875 -0.984375 -0.84375 -1.65625q-0.5625 -0.65625 -1.375 -0.984375q-0.796875 -0.34375 -1.796875 -0.34375q-1.0 0 -1.796875 0.34375q-0.796875 0.328125 -1.34375 0.984375q-0.5625 0.671875 -0.875 1.65625q-0.296875 0.96875 -0.296875 2.25l0 3.171875q0 1.28125 0.296875 2.265625q0.3125 0.984375 0.875 1.640625q0.5625 0.65625 1.359375 1.0q0.8125 0.328125 1.796875 0.328125q1.0 0 1.796875 -0.328125q0.8125 -0.34375 1.359375 -1.0q0.5625 -0.65625 0.859375 -1.640625q0.296875 -0.984375 0.296875 -2.265625zm-6.09375 -1.09375q0 -0.28125 0 -0.421875q0 -0.15625 0 -0.59375l0 -1.46875q0 -0.734375 0.109375 -1.265625q0.125 -0.546875 0.359375 -0.875q0.21875 -0.328125 0.546875 -0.484375q0.328125 -0.15625 0.75 -0.15625q0.375 0 0.6875 0.125q0.3125 0.125 0.515625 0.375q0.265625 0.328125 0.40625 0.859375q0.140625 0.53125 0.171875 1.28125l-3.546875 2.625zm3.546875 1.46875q0 0.75 -0.125 1.296875q-0.109375 0.53125 -0.328125 0.875q-0.21875 0.328125 -0.546875 0.5q-0.328125 0.15625 -0.765625 0.15625q-0.46875 0 -0.8125 -0.1875q-0.328125 -0.1875 -0.546875 -0.5625q-0.1875 -0.296875 -0.296875 -0.765625q-0.09375 -0.46875 -0.125 -1.0625l3.546875 -2.625q0 0.265625 0 0.40625q0 0.140625 0 0.4375l0 1.53125zm13.742432 -0.375l0 -3.171875q0 -1.28125 -0.3125 -2.25q-0.296875 -0.984375 -0.84375 -1.65625q-0.5625 -0.65625 -1.375 -0.984375q-0.796875 -0.34375 -1.796875 -0.34375q-1.0 0 -1.796875 0.34375q-0.796875 0.328125 -1.34375 0.984375q-0.5625 0.671875 -0.875 1.65625q-0.296875 0.96875 -0.296875 2.25l0 3.171875q0 1.28125 0.296875 2.265625q0.3125 0.984375 0.875 1.640625q0.5625 0.65625 1.359375 1.0q0.8125 0.328125 1.796875 0.328125q1.0 0 1.796875 -0.328125q0.8125 -0.34375 1.359375 -1.0q0.5625 -0.65625 0.859375 -1.640625q0.296875 -0.984375 0.296875 -2.265625zm-6.09375 -1.09375q0 -0.28125 0 -0.421875q0 -0.15625 0 -0.59375l0 -1.46875q0 -0.734375 0.109375 -1.265625q0.125 -0.546875 0.359375 -0.875q0.21875 -0.328125 0.546875 -0.484375q0.328125 -0.15625 0.75 -0.15625q0.375 0 0.6875 0.125q0.3125 0.125 0.515625 0.375q0.265625 0.328125 0.40625 0.859375q0.140625 0.53125 0.171875 1.28125l-3.546875 2.625zm3.546875 1.46875q0 0.75 -0.125 1.296875q-0.109375 0.53125 -0.328125 0.875q-0.21875 0.328125 -0.546875 0.5q-0.328125 0.15625 -0.765625 0.15625q-0.46875 0 -0.8125 -0.1875q-0.328125 -0.1875 -0.546875 -0.5625q-0.1875 -0.296875 -0.296875 -0.765625q-0.09375 -0.46875 -0.125 -1.0625l3.546875 -2.625q0 0.265625 0 0.40625q0 0.140625 0 0.4375l0 1.53125zm13.742432 -0.375l0 -3.171875q0 -1.28125 -0.3125 -2.25q-0.296875 -0.984375 -0.84375 -1.65625q-0.5625 -0.65625 -1.3749695 -0.984375q-0.796875 -0.34375 -1.796875 -0.34375q-1.0 0 -1.796875 0.34375q-0.796875 0.328125 -1.34375 0.984375q-0.5625 0.671875 -0.875 1.65625q-0.296875 0.96875 -0.296875 2.25l0 3.171875q0 1.28125 0.296875 2.265625q0.3125 0.984375 0.875 1.640625q0.5625 0.65625 1.359375 1.0q0.8125 0.328125 1.796875 0.328125q1.0 0 1.796875 -0.328125q0.8124695 -0.34375 1.3593445 -1.0q0.5625 -0.65625 0.859375 -1.640625q0.296875 -0.984375 0.296875 -2.265625zm-6.0937195 -1.09375q0 -0.28125 0 -0.421875q0 -0.15625 0 -0.59375l0 -1.46875q0 -0.734375 0.109375 -1.265625q0.125 -0.546875 0.359375 -0.875q0.21875 -0.328125 0.546875 -0.484375q0.328125 -0.15625 0.75 -0.15625q0.375 0 0.6875 0.125q0.3125 0.125 0.515625 0.375q0.265625 0.328125 0.40625 0.859375q0.140625 0.53125 0.171875 1.28125l-3.546875 2.625zm3.546875 1.46875q0 0.75 -0.125 1.296875q-0.109375 0.53125 -0.328125 0.875q-0.21875 0.328125 -0.546875 0.5q-0.328125 0.15625 -0.765625 0.15625q-0.46875 0 -0.8125 -0.1875q-0.328125 -0.1875 -0.546875 -0.5625q-0.1875 -0.296875 -0.296875 -0.765625q-0.09375 -0.46875 -0.125 -1.0625l3.546875 -2.625q0 0.265625 0 0.40625q0 0.140625 0 0.4375l0 1.53125zm13.742462 -0.375l0 -3.171875q0 -1.28125 -0.3125 -2.25q-0.296875 -0.984375 -0.84375 -1.65625q-0.5625 -0.65625 -1.375 -0.984375q-0.796875 -0.34375 -1.796875 -0.34375q-1.0 0 -1.796875 0.34375q-0.796875 0.328125 -1.34375 0.984375q-0.5625 0.671875 -0.875 1.65625q-0.296875 0.96875 -0.296875 2.25l0 3.171875q0 1.28125 0.296875 2.265625q0.3125 0.984375 0.875 1.640625q0.5625 0.65625 1.359375 1.0q0.8125 0.328125 1.796875 0.328125q1.0 0 1.796875 -0.328125q0.8125 -0.34375 1.359375 -1.0q0.5625 -0.65625 0.859375 -1.640625q0.296875 -0.984375 0.296875 -2.265625zm-6.09375 -1.09375q0 -0.28125 0 -0.421875q0 -0.15625 0 -0.59375l0 -1.46875q0 -0.734375 0.109375 -1.265625q0.125 -0.546875 0.359375 -0.875q0.21875 -0.328125 0.546875 -0.484375q0.328125 -0.15625 0.75 -0.15625q0.375 0 0.6875 0.125q0.3125 0.125 0.515625 0.375q0.265625 0.328125 0.40625 0.859375q0.140625 0.53125 0.171875 1.28125l-3.546875 2.625zm3.546875 1.46875q0 0.75 -0.125 1.296875q-0.109375 0.53125 -0.328125 0.875q-0.21875 0.328125 -0.546875 0.5q-0.328125 0.15625 -0.765625 0.15625q-0.46875 0 -0.8125 -0.1875q-0.328125 -0.1875 -0.546875 -0.5625q-0.1875 -0.296875 -0.296875 -0.765625q-0.09375 -0.46875 -0.125 -1.0625l3.546875 -2.625q0 0.265625 0 0.40625q0 0.140625 0 0.4375l0 1.53125zm13.742432 -0.375l0 -3.171875q0 -1.28125 -0.3125 -2.25q-0.296875 -0.984375 -0.84375 -1.65625q-0.5625 -0.65625 -1.375 -0.984375q-0.796875 -0.34375 -1.796875 -0.34375q-1.0 0 -1.796875 0.34375q-0.796875 0.328125 -1.34375 0.984375q-0.5625 0.671875 -0.875 1.65625q-0.296875 0.96875 -0.296875 2.25l0 3.171875q0 1.28125 0.296875 2.265625q0.3125 0.984375 0.875 1.640625q0.5625 0.65625 1.359375 1.0q0.8125 0.328125 1.796875 0.328125q1.0 0 1.796875 -0.328125q0.8125 -0.34375 1.359375 -1.0q0.5625 -0.65625 0.859375 -1.640625q0.296875 -0.984375 0.296875 -2.265625zm-6.09375 -1.09375q0 -0.28125 0 -0.421875q0 -0.15625 0 -0.59375l0 -1.46875q0 -0.734375 0.109375 -1.265625q0.125 -0.546875 0.359375 -0.875q0.21875 -0.328125 0.546875 -0.484375q0.328125 -0.15625 0.75 -0.15625q0.375 0 0.6875 0.125q0.3125 0.125 0.515625 0.375q0.265625 0.328125 0.40625 0.859375q0.140625 0.53125 0.171875 1.28125l-3.546875 2.625zm3.546875 1.46875q0 0.75 -0.125 1.296875q-0.109375 0.53125 -0.328125 0.875q-0.21875 0.328125 -0.546875 0.5q-0.328125 0.15625 -0.765625 0.15625q-0.46875 0 -0.8125 -0.1875q-0.328125 -0.1875 -0.546875 -0.5625q-0.1875 -0.296875 -0.296875 -0.765625q-0.09375 -0.46875 -0.125 -1.0625l3.546875 -2.625q0 0.265625 0 0.40625q0 0.140625 0 0.4375l0 1.53125zm11.304932 4.671875l0 -13.265625l-0.140625 0l-5.765625 2.09375l0 2.203125l3.34375 -1.203125l0 10.171875l2.5625 0z" fill-rule="nonzero"/><path fill="#000000" fill-opacity="0.0" d="m115.19423 212.8189l41.007874 -0.62991333" fill-rule="evenodd"/><path stroke="#666666" stroke-width="3.0" stroke-linejoin="round" stroke-linecap="butt" d="m115.19423 212.8189l41.007874 -0.62991333" fill-rule="evenodd"/><path fill="#000000" fill-opacity="0.0" d="m0.09186352 191.72441l126.58267 0l0 42.015747l-126.58267 0z" fill-rule="evenodd"/><path fill="#000000" d="m26.08529 218.64441l0 -13.265625l-0.140625 0l-5.765625 2.09375l0 2.203125l3.34375 -1.203125l0 10.171875l2.5625 0zm11.19557 0l0 -13.265625l-0.140625 0l-5.765623 2.09375l0 2.203125l3.343748 -1.203125l0 10.171875l2.5625 0zm13.633072 -5.046875l0 -3.171875q0 -1.28125 -0.3125 -2.25q-0.296875 -0.984375 -0.84375 -1.65625q-0.5625 -0.65625 -1.375 -0.984375q-0.796875 -0.34375 -1.796875 -0.34375q-1.0 0 -1.796875 0.34375q-0.796875 0.328125 -1.34375 0.984375q-0.5625 0.671875 -0.875 1.65625q-0.296875 0.96875 -0.296875 2.25l0 3.171875q0 1.28125 0.296875 2.265625q0.3125 0.984375 0.875 1.640625q0.5625 0.65625 1.359375 1.0q0.8125 0.328125 1.796875 0.328125q1.0 0 1.796875 -0.328125q0.8125 -0.34375 1.359375 -1.0q0.5625 -0.65625 0.859375 -1.640625q0.296875 -0.984375 0.296875 -2.265625zm-6.09375 -1.09375q0 -0.28125 0 -0.421875q0 -0.15625 0 -0.59375l0 -1.46875q0 -0.734375 0.109375 -1.265625q0.125 -0.546875 0.359375 -0.875q0.21875 -0.328125 0.546875 -0.484375q0.328125 -0.15625 0.75 -0.15625q0.375 0 0.6875 0.125q0.3125 0.125 0.515625 0.375q0.265625 0.328125 0.40625 0.859375q0.140625 0.53125 0.171875 1.28125l-3.546875 2.625zm3.546875 1.46875q0 0.75 -0.125 1.296875q-0.109375 0.53125 -0.328125 0.875q-0.21875 0.328125 -0.546875 0.5q-0.328125 0.15625 -0.765625 0.15625q-0.46875 0 -0.8125 -0.1875q-0.328125 -0.1875 -0.546875 -0.5625q-0.1875 -0.296875 -0.296875 -0.765625q-0.09375 -0.46875 -0.125 -1.0625l3.546875 -2.625q0 0.265625 0 0.40625q0 0.140625 0 0.4375l0 1.53125zm13.742447 -0.375l0 -3.171875q0 -1.28125 -0.3125 -2.25q-0.296875 -0.984375 -0.84375 -1.65625q-0.5625 -0.65625 -1.375 -0.984375q-0.796875 -0.34375 -1.796875 -0.34375q-1.0 0 -1.796875 0.34375q-0.796875 0.328125 -1.34375 0.984375q-0.5625 0.671875 -0.875 1.65625q-0.296875 0.96875 -0.296875 2.25l0 3.171875q0 1.28125 0.296875 2.265625q0.3125 0.984375 0.875 1.640625q0.5625 0.65625 1.359375 1.0q0.8125 0.328125 1.796875 0.328125q1.0 0 1.796875 -0.328125q0.8125 -0.34375 1.359375 -1.0q0.5625 -0.65625 0.859375 -1.640625q0.296875 -0.984375 0.296875 -2.265625zm-6.09375 -1.09375q0 -0.28125 0 -0.421875q0 -0.15625 0 -0.59375l0 -1.46875q0 -0.734375 0.109375 -1.265625q0.125 -0.546875 0.359375 -0.875q0.21875 -0.328125 0.546875 -0.484375q0.328125 -0.15625 0.75 -0.15625q0.375 0 0.6875 0.125q0.3125 0.125 0.515625 0.375q0.265625 0.328125 0.40625 0.859375q0.140625 0.53125 0.171875 1.28125l-3.546875 2.625zm3.546875 1.46875q0 0.75 -0.125 1.296875q-0.109375 0.53125 -0.328125 0.875q-0.21875 0.328125 -0.546875 0.5q-0.328125 0.15625 -0.765625 0.15625q-0.46875 0 -0.8125 -0.1875q-0.328125 -0.1875 -0.546875 -0.5625q-0.1875 -0.296875 -0.296875 -0.765625q-0.09375 -0.46875 -0.125 -1.0625l3.546875 -2.625q0 0.265625 0 0.40625q0 0.140625 0 0.4375l0 1.53125zm13.742447 -0.375l0 -3.171875q0 -1.28125 -0.3125 -2.25q-0.296875 -0.984375 -0.84375 -1.65625q-0.5625 -0.65625 -1.375 -0.984375q-0.796875 -0.34375 -1.796875 -0.34375q-1.0 0 -1.796875 0.34375q-0.796875 0.328125 -1.34375 0.984375q-0.5625 0.671875 -0.875 1.65625q-0.296875 0.96875 -0.296875 2.25l0 3.171875q0 1.28125 0.296875 2.265625q0.3125 0.984375 0.875 1.640625q0.5625 0.65625 1.359375 1.0q0.8125 0.328125 1.796875 0.328125q1.0 0 1.796875 -0.328125q0.8125 -0.34375 1.359375 -1.0q0.5625 -0.65625 0.859375 -1.640625q0.296875 -0.984375 0.296875 -2.265625zm-6.09375 -1.09375q0 -0.28125 0 -0.421875q0 -0.15625 0 -0.59375l0 -1.46875q0 -0.734375 0.109375 -1.265625q0.125 -0.546875 0.359375 -0.875q0.21875 -0.328125 0.546875 -0.484375q0.328125 -0.15625 0.75 -0.15625q0.375 0 0.6875 0.125q0.3125 0.125 0.515625 0.375q0.265625 0.328125 0.40625 0.859375q0.140625 0.53125 0.171875 1.28125l-3.546875 2.625zm3.546875 1.46875q0 0.75 -0.125 1.296875q-0.109375 0.53125 -0.328125 0.875q-0.21875 0.328125 -0.546875 0.5q-0.328125 0.15625 -0.765625 0.15625q-0.46875 0 -0.8125 -0.1875q-0.328125 -0.1875 -0.546875 -0.5625q-0.1875 -0.296875 -0.296875 -0.765625q-0.09375 -0.46875 -0.125 -1.0625l3.546875 -2.625q0 0.265625 0 0.40625q0 0.140625 0 0.4375l0 1.53125zm13.742447 -0.375l0 -3.171875q0 -1.28125 -0.3125 -2.25q-0.296875 -0.984375 -0.84375 -1.65625q-0.5625 -0.65625 -1.375 -0.984375q-0.796875 -0.34375 -1.796875 -0.34375q-1.0 0 -1.796875 0.34375q-0.796875 0.328125 -1.34375 0.984375q-0.5625 0.671875 -0.875 1.65625q-0.296875 0.96875 -0.296875 2.25l0 3.171875q0 1.28125 0.296875 2.265625q0.3125 0.984375 0.875 1.640625q0.5625 0.65625 1.359375 1.0q0.8125 0.328125 1.796875 0.328125q1.0 0 1.796875 -0.328125q0.8125 -0.34375 1.359375 -1.0q0.5625 -0.65625 0.859375 -1.640625q0.296875 -0.984375 0.296875 -2.265625zm-6.09375 -1.09375q0 -0.28125 0 -0.421875q0 -0.15625 0 -0.59375l0 -1.46875q0 -0.734375 0.109375 -1.265625q0.125 -0.546875 0.359375 -0.875q0.21875 -0.328125 0.546875 -0.484375q0.328125 -0.15625 0.75 -0.15625q0.375 0 0.6875 0.125q0.3125 0.125 0.515625 0.375q0.265625 0.328125 0.40625 0.859375q0.140625 0.53125 0.171875 1.28125l-3.546875 2.625zm3.546875 1.46875q0 0.75 -0.125 1.296875q-0.109375 0.53125 -0.328125 0.875q-0.21875 0.328125 -0.546875 0.5q-0.328125 0.15625 -0.765625 0.15625q-0.46875 0 -0.8125 -0.1875q-0.328125 -0.1875 -0.546875 -0.5625q-0.1875 -0.296875 -0.296875 -0.765625q-0.09375 -0.46875 -0.125 -1.0625l3.546875 -2.625q0 0.265625 0 0.40625q0 0.140625 0 0.4375l0 1.53125zm13.742447 -0.375l0 -3.171875q0 -1.28125 -0.3125 -2.25q-0.296875 -0.984375 -0.84375 -1.65625q-0.5625 -0.65625 -1.375 -0.984375q-0.796875 -0.34375 -1.796875 -0.34375q-1.0 0 -1.796875 0.34375q-0.796875 0.328125 -1.34375 0.984375q-0.5625 0.671875 -0.875 1.65625q-0.296875 0.96875 -0.296875 2.25l0 3.171875q0 1.28125 0.296875 2.265625q0.3125 0.984375 0.875 1.640625q0.5625 0.65625 1.359375 1.0q0.8125 0.328125 1.796875 0.328125q1.0 0 1.796875 -0.328125q0.8125 -0.34375 1.359375 -1.0q0.5625 -0.65625 0.859375 -1.640625q0.296875 -0.984375 0.296875 -2.265625zm-6.09375 -1.09375q0 -0.28125 0 -0.421875q0 -0.15625 0 -0.59375l0 -1.46875q0 -0.734375 0.109375 -1.265625q0.125 -0.546875 0.359375 -0.875q0.21875 -0.328125 0.546875 -0.484375q0.328125 -0.15625 0.75 -0.15625q0.375 0 0.6875 0.125q0.3125 0.125 0.515625 0.375q0.265625 0.328125 0.40625 0.859375q0.140625 0.53125 0.171875 1.28125l-3.546875 2.625zm3.546875 1.46875q0 0.75 -0.125 1.296875q-0.109375 0.53125 -0.328125 0.875q-0.21875 0.328125 -0.546875 0.5q-0.328125 0.15625 -0.765625 0.15625q-0.46875 0 -0.8125 -0.1875q-0.328125 -0.1875 -0.546875 -0.5625q-0.1875 -0.296875 -0.296875 -0.765625q-0.09375 -0.46875 -0.125 -1.0625l3.546875 -2.625q0 0.265625 0 0.40625q0 0.140625 0 0.4375l0 1.53125zm13.742447 -0.375l0 -3.171875q0 -1.28125 -0.3125 -2.25q-0.296875 -0.984375 -0.84375 -1.65625q-0.5625 -0.65625 -1.375 -0.984375q-0.796875 -0.34375 -1.796875 -0.34375q-1.0 0 -1.796875 0.34375q-0.796875 0.328125 -1.34375 0.984375q-0.5625 0.671875 -0.875 1.65625q-0.296875 0.96875 -0.296875 2.25l0 3.171875q0 1.28125 0.296875 2.265625q0.3125 0.984375 0.875 1.640625q0.5625 0.65625 1.359375 1.0q0.8125 0.328125 1.796875 0.328125q1.0 0 1.796875 -0.328125q0.8125 -0.34375 1.359375 -1.0q0.5625 -0.65625 0.859375 -1.640625q0.296875 -0.984375 0.296875 -2.265625zm-6.09375 -1.09375q0 -0.28125 0 -0.421875q0 -0.15625 0 -0.59375l0 -1.46875q0 -0.734375 0.109375 -1.265625q0.125 -0.546875 0.359375 -0.875q0.21875 -0.328125 0.546875 -0.484375q0.328125 -0.15625 0.75 -0.15625q0.375 0 0.6875 0.125q0.3125 0.125 0.515625 0.375q0.265625 0.328125 0.40625 0.859375q0.140625 0.53125 0.171875 1.28125l-3.546875 2.625zm3.546875 1.46875q0 0.75 -0.125 1.296875q-0.109375 0.53125 -0.328125 0.875q-0.21875 0.328125 -0.546875 0.5q-0.328125 0.15625 -0.765625 0.15625q-0.46875 0 -0.8125 -0.1875q-0.328125 -0.1875 -0.546875 -0.5625q-0.1875 -0.296875 -0.296875 -0.765625q-0.09375 -0.46875 -0.125 -1.0625l3.546875 -2.625q0 0.265625 0 0.40625q0 0.140625 0 0.4375l0 1.53125z" fill-rule="nonzero"/><path fill="#000000" fill-opacity="0.0" d="m24.091864 215.72441l126.58268 0l0 42.01573l-126.58268 0z" fill-rule="evenodd"/><path fill="#000000" d="m50.08529 242.64441l0 -13.265625l-0.140625 0l-5.765625 2.09375l0 2.203125l3.34375 -1.203125l0 10.171875l2.5625 0zm11.195572 0l0 -13.265625l-0.140625 0l-5.765625 2.09375l0 2.203125l3.34375 -1.203125l0 10.171875l2.5625 0zm13.633072 -5.046875l0 -3.171875q0 -1.28125 -0.3125 -2.25q-0.296875 -0.984375 -0.84375 -1.65625q-0.5625 -0.65625 -1.375 -0.984375q-0.796875 -0.34375 -1.796875 -0.34375q-1.0 0 -1.796875 0.34375q-0.796875 0.328125 -1.34375 0.984375q-0.5625 0.671875 -0.875 1.65625q-0.296875 0.96875 -0.296875 2.25l0 3.171875q0 1.28125 0.296875 2.265625q0.3125 0.984375 0.875 1.640625q0.5625 0.65625 1.359375 1.0q0.8125 0.328125 1.796875 0.328125q1.0 0 1.796875 -0.328125q0.8125 -0.34375 1.359375 -1.0q0.5625 -0.65625 0.859375 -1.640625q0.296875 -0.984375 0.296875 -2.265625zm-6.09375 -1.09375q0 -0.28125 0 -0.421875q0 -0.15625 0 -0.59375l0 -1.46875q0 -0.734375 0.109375 -1.265625q0.125 -0.546875 0.359375 -0.875q0.21875 -0.328125 0.546875 -0.484375q0.328125 -0.15625 0.75 -0.15625q0.375 0 0.6875 0.125q0.3125 0.125 0.515625 0.375q0.265625 0.328125 0.40625 0.859375q0.140625 0.53125 0.171875 1.28125l-3.546875 2.625zm3.546875 1.46875q0 0.75 -0.125 1.296875q-0.109375 0.53125 -0.328125 0.875q-0.21875 0.328125 -0.546875 0.5q-0.328125 0.15625 -0.765625 0.15625q-0.46875 0 -0.8125 -0.1875q-0.328125 -0.1875 -0.546875 -0.5625q-0.1875 -0.296875 -0.296875 -0.765625q-0.09375 -0.46875 -0.125 -1.0625l3.546875 -2.625q0 0.265625 0 0.40625q0 0.140625 0 0.4375l0 1.53125zm13.742447 -0.375l0 -3.171875q0 -1.28125 -0.3125 -2.25q-0.296875 -0.984375 -0.84375 -1.65625q-0.5625 -0.65625 -1.375 -0.984375q-0.796875 -0.34375 -1.796875 -0.34375q-1.0 0 -1.796875 0.34375q-0.796875 0.328125 -1.34375 0.984375q-0.5625 0.671875 -0.875 1.65625q-0.296875 0.96875 -0.296875 2.25l0 3.171875q0 1.28125 0.296875 2.265625q0.3125 0.984375 0.875 1.640625q0.5625 0.65625 1.359375 1.0q0.8125 0.328125 1.796875 0.328125q1.0 0 1.796875 -0.328125q0.8125 -0.34375 1.359375 -1.0q0.5625 -0.65625 0.859375 -1.640625q0.296875 -0.984375 0.296875 -2.265625zm-6.09375 -1.09375q0 -0.28125 0 -0.421875q0 -0.15625 0 -0.59375l0 -1.46875q0 -0.734375 0.109375 -1.265625q0.125 -0.546875 0.359375 -0.875q0.21875 -0.328125 0.546875 -0.484375q0.328125 -0.15625 0.75 -0.15625q0.375 0 0.6875 0.125q0.3125 0.125 0.515625 0.375q0.265625 0.328125 0.40625 0.859375q0.140625 0.53125 0.171875 1.28125l-3.546875 2.625zm3.546875 1.46875q0 0.75 -0.125 1.296875q-0.109375 0.53125 -0.328125 0.875q-0.21875 0.328125 -0.546875 0.5q-0.328125 0.15625 -0.765625 0.15625q-0.46875 0 -0.8125 -0.1875q-0.328125 -0.1875 -0.546875 -0.5625q-0.1875 -0.296875 -0.296875 -0.765625q-0.09375 -0.46875 -0.125 -1.0625l3.546875 -2.625q0 0.265625 0 0.40625q0 0.140625 0 0.4375l0 1.53125zm13.742447 -0.375l0 -3.171875q0 -1.28125 -0.3125 -2.25q-0.296875 -0.984375 -0.84375 -1.65625q-0.5625 -0.65625 -1.375 -0.984375q-0.796875 -0.34375 -1.796875 -0.34375q-1.0 0 -1.796875 0.34375q-0.796875 0.328125 -1.34375 0.984375q-0.5625 0.671875 -0.875 1.65625q-0.296875 0.96875 -0.296875 2.25l0 3.171875q0 1.28125 0.296875 2.265625q0.3125 0.984375 0.875 1.640625q0.5625 0.65625 1.359375 1.0q0.8125 0.328125 1.796875 0.328125q1.0 0 1.796875 -0.328125q0.8125 -0.34375 1.359375 -1.0q0.5625 -0.65625 0.859375 -1.640625q0.296875 -0.984375 0.296875 -2.265625zm-6.09375 -1.09375q0 -0.28125 0 -0.421875q0 -0.15625 0 -0.59375l0 -1.46875q0 -0.734375 0.109375 -1.265625q0.125 -0.546875 0.359375 -0.875q0.21875 -0.328125 0.546875 -0.484375q0.328125 -0.15625 0.75 -0.15625q0.375 0 0.6875 0.125q0.3125 0.125 0.515625 0.375q0.265625 0.328125 0.40625 0.859375q0.140625 0.53125 0.171875 1.28125l-3.546875 2.625zm3.546875 1.46875q0 0.75 -0.125 1.296875q-0.109375 0.53125 -0.328125 0.875q-0.21875 0.328125 -0.546875 0.5q-0.328125 0.15625 -0.765625 0.15625q-0.46875 0 -0.8125 -0.1875q-0.328125 -0.1875 -0.546875 -0.5625q-0.1875 -0.296875 -0.296875 -0.765625q-0.09375 -0.46875 -0.125 -1.0625l3.546875 -2.625q0 0.265625 0 0.40625q0 0.140625 0 0.4375l0 1.53125zm13.742447 -0.375l0 -3.171875q0 -1.28125 -0.3125 -2.25q-0.296875 -0.984375 -0.84375 -1.65625q-0.5625 -0.65625 -1.375 -0.984375q-0.796875 -0.34375 -1.796875 -0.34375q-1.0 0 -1.796875 0.34375q-0.796875 0.328125 -1.34375 0.984375q-0.5625 0.671875 -0.875 1.65625q-0.296875 0.96875 -0.296875 2.25l0 3.171875q0 1.28125 0.296875 2.265625q0.3125 0.984375 0.875 1.640625q0.5625 0.65625 1.359375 1.0q0.8125 0.328125 1.796875 0.328125q1.0 0 1.796875 -0.328125q0.8125 -0.34375 1.359375 -1.0q0.5625 -0.65625 0.859375 -1.640625q0.296875 -0.984375 0.296875 -2.265625zm-6.09375 -1.09375q0 -0.28125 0 -0.421875q0 -0.15625 0 -0.59375l0 -1.46875q0 -0.734375 0.109375 -1.265625q0.125 -0.546875 0.359375 -0.875q0.21875 -0.328125 0.546875 -0.484375q0.328125 -0.15625 0.75 -0.15625q0.375 0 0.6875 0.125q0.3125 0.125 0.515625 0.375q0.265625 0.328125 0.40625 0.859375q0.140625 0.53125 0.171875 1.28125l-3.546875 2.625zm3.546875 1.46875q0 0.75 -0.125 1.296875q-0.109375 0.53125 -0.328125 0.875q-0.21875 0.328125 -0.546875 0.5q-0.328125 0.15625 -0.765625 0.15625q-0.46875 0 -0.8125 -0.1875q-0.328125 -0.1875 -0.546875 -0.5625q-0.1875 -0.296875 -0.296875 -0.765625q-0.09375 -0.46875 -0.125 -1.0625l3.546875 -2.625q0 0.265625 0 0.40625q0 0.140625 0 0.4375l0 1.53125zm13.742447 -0.375l0 -3.171875q0 -1.28125 -0.3125 -2.25q-0.296875 -0.984375 -0.84375 -1.65625q-0.5625 -0.65625 -1.375 -0.984375q-0.796875 -0.34375 -1.796875 -0.34375q-1.0 0 -1.796875 0.34375q-0.796875 0.328125 -1.34375 0.984375q-0.5625 0.671875 -0.875 1.65625q-0.296875 0.96875 -0.296875 2.25l0 3.171875q0 1.28125 0.296875 2.265625q0.3125 0.984375 0.875 1.640625q0.5625 0.65625 1.359375 1.0q0.8125 0.328125 1.796875 0.328125q1.0 0 1.796875 -0.328125q0.8125 -0.34375 1.359375 -1.0q0.5625 -0.65625 0.859375 -1.640625q0.296875 -0.984375 0.296875 -2.265625zm-6.09375 -1.09375q0 -0.28125 0 -0.421875q0 -0.15625 0 -0.59375l0 -1.46875q0 -0.734375 0.109375 -1.265625q0.125 -0.546875 0.359375 -0.875q0.21875 -0.328125 0.546875 -0.484375q0.328125 -0.15625 0.75 -0.15625q0.375 0 0.6875 0.125q0.3125 0.125 0.515625 0.375q0.265625 0.328125 0.40625 0.859375q0.140625 0.53125 0.171875 1.28125l-3.546875 2.625zm3.546875 1.46875q0 0.75 -0.125 1.296875q-0.109375 0.53125 -0.328125 0.875q-0.21875 0.328125 -0.546875 0.5q-0.328125 0.15625 -0.765625 0.15625q-0.46875 0 -0.8125 -0.1875q-0.328125 -0.1875 -0.546875 -0.5625q-0.1875 -0.296875 -0.296875 -0.765625q-0.09375 -0.46875 -0.125 -1.0625l3.546875 -2.625q0 0.265625 0 0.40625q0 0.140625 0 0.4375l0 1.53125zm11.304939 4.671875l0 -13.265625l-0.140625 0l-5.7656174 2.09375l0 2.203125l3.34375 -1.203125l0 10.171875l2.5624924 0z" fill-rule="nonzero"/><path fill="#000000" fill-opacity="0.0" d="m24.091864 167.72441l126.58268 0l0 42.015747l-126.58268 0z" fill-rule="evenodd"/><path fill="#000000" d="m50.08529 194.64441l0 -13.265625l-0.140625 0l-5.765625 2.09375l0 2.203125l3.34375 -1.203125l0 10.171875l2.5625 0zm13.633072 -5.046875l0 -3.171875q0 -1.28125 -0.3125 -2.25q-0.296875 -0.984375 -0.84375 -1.65625q-0.5625 -0.65625 -1.375 -0.984375q-0.796875 -0.34375 -1.796875 -0.34375q-1.0 0 -1.796875 0.34375q-0.796875 0.328125 -1.34375 0.984375q-0.5625 0.671875 -0.875 1.65625q-0.296875 0.96875 -0.296875 2.25l0 3.171875q0 1.28125 0.296875 2.265625q0.3125 0.984375 0.875 1.640625q0.5625 0.65625 1.359375 1.0q0.8125 0.328125 1.796875 0.328125q1.0 0 1.796875 -0.328125q0.8125 -0.34375 1.359375 -1.0q0.5625 -0.65625 0.859375 -1.640625q0.296875 -0.984375 0.296875 -2.265625zm-6.09375 -1.09375q0 -0.28125 0 -0.421875q0 -0.15625 0 -0.59375l0 -1.46875q0 -0.734375 0.109375 -1.265625q0.125 -0.546875 0.359375 -0.875q0.21875 -0.328125 0.546875 -0.484375q0.328125 -0.15625 0.75 -0.15625q0.375 0 0.6875 0.125q0.3125 0.125 0.515625 0.375q0.265625 0.328125 0.40625 0.859375q0.140625 0.53125 0.171875 1.28125l-3.546875 2.625zm3.546875 1.46875q0 0.75 -0.125 1.296875q-0.109375 0.53125 -0.328125 0.875q-0.21875 0.328125 -0.546875 0.5q-0.328125 0.15625 -0.765625 0.15625q-0.46875 0 -0.8125 -0.1875q-0.328125 -0.1875 -0.546875 -0.5625q-0.1875 -0.296875 -0.296875 -0.765625q-0.09375 -0.46875 -0.125 -1.0625l3.546875 -2.625q0 0.265625 0 0.40625q0 0.140625 0 0.4375l0 1.53125zm11.304947 4.671875l0 -13.265625l-0.140625 0l-5.765625 2.09375l0 2.203125l3.34375 -1.203125l0 10.171875l2.5625 0zm11.195572 0l0 -13.265625l-0.140625 0l-5.765625 2.09375l0 2.203125l3.34375 -1.203125l0 10.171875l2.5625 0zm11.195572 0l0 -13.265625l-0.140625 0l-5.765625 2.09375l0 2.203125l3.34375 -1.203125l0 10.171875l2.5625 0zm11.195572 0l0 -13.265625l-0.140625 0l-5.765625 2.09375l0 2.203125l3.34375 -1.203125l0 10.171875l2.5625 0zm11.195572 0l0 -13.265625l-0.140625 0l-5.765625 2.09375l0 2.203125l3.34375 -1.203125l0 10.171875l2.5625 0zm11.195564 0l0 -13.265625l-0.140625 0l-5.7656174 2.09375l0 2.203125l3.34375 -1.203125l0 10.171875l2.5624924 0z" fill-rule="nonzero"/></g></svg>