<svg version="1.1" viewBox="0.0 0.0 404.87401574803147 100.0" fill="none" stroke="none" stroke-linecap="square" stroke-miterlimit="10" xmlns:xlink="http://www.w3.org/1999/xlink" xmlns="http://www.w3.org/2000/svg"><clipPath id="p.0"><path d="m0 0l404.87402 0l0 100.0l-404.87402 0l0 -100.0z" clip-rule="nonzero"/></clipPath><g clip-path="url(#p.0)"><path fill="#000000" fill-opacity="0.0" d="m0 0l404.87402 0l0 100.0l-404.87402 0z" fill-rule="evenodd"/><path fill="#000000" fill-opacity="0.0" d="m8.673033 32.0l384.0 0l0 33.007874l-384.0 0z" fill-rule="evenodd"/><path stroke="#999999" stroke-width="3.0" stroke-linejoin="round" stroke-linecap="butt" d="m8.673033 32.0l384.0 0l0 33.007874l-384.0 0z" fill-rule="evenodd"/><path fill="#ff0000" d="m14.877757 37.90551l20.283463 0l0 20.283466l-20.283463 0z" fill-rule="evenodd"/><path stroke="#ff0000" stroke-width="1.0" stroke-linejoin="round" stroke-linecap="butt" d="m14.877757 37.90551l20.283463 0l0 20.283466l-20.283463 0z" fill-rule="evenodd"/><path fill="#ff0000" d="m46.877758 37.90551l20.283466 0l0 20.283466l-20.283466 0z" fill-rule="evenodd"/><path stroke="#ff0000" stroke-width="1.0" stroke-linejoin="round" stroke-linecap="butt" d="m46.877758 37.90551l20.283466 0l0 20.283466l-20.283466 0z" fill-rule="evenodd"/></g></svg>