<svg version="1.1" viewBox="0.0 0.0 399.84514435695536 100.0" fill="none" stroke="none" stroke-linecap="square" stroke-miterlimit="10" xmlns:xlink="http://www.w3.org/1999/xlink" xmlns="http://www.w3.org/2000/svg"><clipPath id="p.0"><path d="m0 0l399.84515 0l0 100.0l-399.84515 0l0 -100.0z" clip-rule="nonzero"/></clipPath><g clip-path="url(#p.0)"><path fill="#000000" fill-opacity="0.0" d="m0 0l399.84515 0l0 100.0l-399.84515 0z" fill-rule="evenodd"/><path fill="#ff0000" d="m13.204724 38.456264l20.283466 0l0 20.283463l-20.283466 0z" fill-rule="evenodd"/><path stroke="#ff0000" stroke-width="1.0" stroke-linejoin="round" stroke-linecap="butt" d="m13.204724 38.456264l20.283466 0l0 20.283463l-20.283466 0z" fill-rule="evenodd"/><path fill="#ff0000" d="m45.204723 38.456264l20.283466 0l0 20.283463l-20.283466 0z" fill-rule="evenodd"/><path stroke="#ff0000" stroke-width="1.0" stroke-linejoin="round" stroke-linecap="butt" d="m45.204723 38.456264l20.283466 0l0 20.283463l-20.283466 0z" fill-rule="evenodd"/><path fill="#ff0000" d="m77.20473 38.456264l20.283463 0l0 20.283463l-20.283463 0z" fill-rule="evenodd"/><path stroke="#ff0000" stroke-width="1.0" stroke-linejoin="round" stroke-linecap="butt" d="m77.20473 38.456264l20.283463 0l0 20.283463l-20.283463 0z" fill-rule="evenodd"/><path fill="#ff0000" d="m109.20473 38.456264l20.283463 0l0 20.283463l-20.283463 0z" fill-rule="evenodd"/><path stroke="#ff0000" stroke-width="1.0" stroke-linejoin="round" stroke-linecap="butt" d="m109.20473 38.456264l20.283463 0l0 20.283463l-20.283463 0z" fill-rule="evenodd"/><path fill="#ff0000" d="m141.20473 38.456264l20.283463 0l0 20.283463l-20.283463 0z" fill-rule="evenodd"/><path stroke="#ff0000" stroke-width="1.0" stroke-linejoin="round" stroke-linecap="butt" d="m141.20473 38.456264l20.283463 0l0 20.283463l-20.283463 0z" fill-rule="evenodd"/><path fill="#ff0000" d="m173.20473 38.456264l20.283463 0l0 20.283463l-20.283463 0z" fill-rule="evenodd"/><path stroke="#ff0000" stroke-width="1.0" stroke-linejoin="round" stroke-linecap="butt" d="m173.20473 38.456264l20.283463 0l0 20.283463l-20.283463 0z" fill-rule="evenodd"/><path fill="#ff0000" d="m205.20473 38.456264l20.283463 0l0 20.283463l-20.283463 0z" fill-rule="evenodd"/><path stroke="#ff0000" stroke-width="1.0" stroke-linejoin="round" stroke-linecap="butt" d="m205.20473 38.456264l20.283463 0l0 20.283463l-20.283463 0z" fill-rule="evenodd"/><path fill="#ff0000" d="m237.20473 38.456264l20.283463 0l0 20.283463l-20.283463 0z" fill-rule="evenodd"/><path stroke="#ff0000" stroke-width="1.0" stroke-linejoin="round" stroke-linecap="butt" d="m237.20473 38.456264l20.283463 0l0 20.283463l-20.283463 0z" fill-rule="evenodd"/><path fill="#ff0000" d="m269.2047 38.456264l20.283478 0l0 20.283463l-20.283478 0z" fill-rule="evenodd"/><path stroke="#ff0000" stroke-width="1.0" stroke-linejoin="round" stroke-linecap="butt" d="m269.2047 38.456264l20.283478 0l0 20.283463l-20.283478 0z" fill-rule="evenodd"/><path fill="#ff0000" d="m301.2047 38.456264l20.283478 0l0 20.283463l-20.283478 0z" fill-rule="evenodd"/><path stroke="#ff0000" stroke-width="1.0" stroke-linejoin="round" stroke-linecap="butt" d="m301.2047 38.456264l20.283478 0l0 20.283463l-20.283478 0z" fill-rule="evenodd"/><path fill="#ff0000" d="m333.2047 38.456264l20.283478 0l0 20.283463l-20.283478 0z" fill-rule="evenodd"/><path stroke="#ff0000" stroke-width="1.0" stroke-linejoin="round" stroke-linecap="butt" d="m333.2047 38.456264l20.283478 0l0 20.283463l-20.283478 0z" fill-rule="evenodd"/><path fill="#ff0000" d="m365.2047 38.456264l20.283478 0l0 20.283463l-20.283478 0z" fill-rule="evenodd"/><path stroke="#ff0000" stroke-width="1.0" stroke-linejoin="round" stroke-linecap="butt" d="m365.2047 38.456264l20.283478 0l0 20.283463l-20.283478 0z" fill-rule="evenodd"/><path fill="#000000" fill-opacity="0.0" d="m7.0 32.55075l384.0 0l0 33.007874l-384.0 0z" fill-rule="evenodd"/><path stroke="#999999" stroke-width="3.0" stroke-linejoin="round" stroke-linecap="butt" d="m7.0 32.55075l384.0 0l0 33.007874l-384.0 0z" fill-rule="evenodd"/></g></svg>