<svg version="1.1" viewBox="0.0 0.0 398.0 528.0" fill="none" stroke="none" stroke-linecap="square" stroke-miterlimit="10" xmlns:xlink="http://www.w3.org/1999/xlink" xmlns="http://www.w3.org/2000/svg"><clipPath id="p.0"><path d="m0 0l398.0 0l0 528.0l-398.0 0l0 -528.0z" clip-rule="nonzero"/></clipPath><g clip-path="url(#p.0)"><path fill="#000000" fill-opacity="0.0" d="m0 0l398.0 0l0 528.0l-398.0 0z" fill-rule="evenodd"/><path fill="#000000" fill-opacity="0.0" d="m7.0 248.0l384.0 0l0 33.007874l-384.0 0z" fill-rule="evenodd"/><path stroke="#999999" stroke-width="3.0" stroke-linejoin="round" stroke-linecap="butt" d="m7.0 248.0l384.0 0l0 33.007874l-384.0 0z" fill-rule="evenodd"/><path fill="#000000" fill-opacity="0.0" d="m7.0 288.0l384.0 0l0 33.007874l-384.0 0z" fill-rule="evenodd"/><path stroke="#999999" stroke-width="3.0" stroke-linejoin="round" stroke-linecap="butt" d="m7.0 288.0l384.0 0l0 33.007874l-384.0 0z" fill-rule="evenodd"/><path fill="#000000" fill-opacity="0.0" d="m7.0 328.0l384.0 0l0 33.007874l-384.0 0z" fill-rule="evenodd"/><path stroke="#999999" stroke-width="3.0" stroke-linejoin="round" stroke-linecap="butt" d="m7.0 328.0l384.0 0l0 33.007874l-384.0 0z" fill-rule="evenodd"/><path fill="#000000" fill-opacity="0.0" d="m7.0 368.0l384.0 0l0 33.007874l-384.0 0z" fill-rule="evenodd"/><path stroke="#999999" stroke-width="3.0" stroke-linejoin="round" stroke-linecap="butt" d="m7.0 368.0l384.0 0l0 33.007874l-384.0 0z" fill-rule="evenodd"/><path fill="#000000" fill-opacity="0.0" d="m7.0 408.0l384.0 0l0 33.007874l-384.0 0z" fill-rule="evenodd"/><path stroke="#999999" stroke-width="3.0" stroke-linejoin="round" stroke-linecap="butt" d="m7.0 408.0l384.0 0l0 33.007874l-384.0 0z" fill-rule="evenodd"/><path fill="#000000" fill-opacity="0.0" d="m7.0 448.0l384.0 0l0 33.007874l-384.0 0z" fill-rule="evenodd"/><path stroke="#999999" stroke-width="3.0" stroke-linejoin="round" stroke-linecap="butt" d="m7.0 448.0l384.0 0l0 33.007874l-384.0 0z" fill-rule="evenodd"/><path fill="#ff0000" d="m13.204724 253.90552l20.283466 0l0 20.283447l-20.283466 0z" fill-rule="evenodd"/><path stroke="#ff0000" stroke-width="1.0" stroke-linejoin="round" stroke-linecap="butt" d="m13.204724 253.90552l20.283466 0l0 20.283447l-20.283466 0z" fill-rule="evenodd"/><path fill="#ff0000" d="m45.204723 253.90552l20.283466 0l0 20.283447l-20.283466 0z" fill-rule="evenodd"/><path stroke="#ff0000" stroke-width="1.0" stroke-linejoin="round" stroke-linecap="butt" d="m45.204723 253.90552l20.283466 0l0 20.283447l-20.283466 0z" fill-rule="evenodd"/><path fill="#ff0000" d="m77.20473 253.90552l20.283463 0l0 20.283447l-20.283463 0z" fill-rule="evenodd"/><path stroke="#ff0000" stroke-width="1.0" stroke-linejoin="round" stroke-linecap="butt" d="m77.20473 253.90552l20.283463 0l0 20.283447l-20.283463 0z" fill-rule="evenodd"/><path fill="#ff0000" d="m109.20473 253.90552l20.283463 0l0 20.283447l-20.283463 0z" fill-rule="evenodd"/><path stroke="#ff0000" stroke-width="1.0" stroke-linejoin="round" stroke-linecap="butt" d="m109.20473 253.90552l20.283463 0l0 20.283447l-20.283463 0z" fill-rule="evenodd"/><path fill="#ff0000" d="m141.20473 253.90552l20.283463 0l0 20.283447l-20.283463 0z" fill-rule="evenodd"/><path stroke="#ff0000" stroke-width="1.0" stroke-linejoin="round" stroke-linecap="butt" d="m141.20473 253.90552l20.283463 0l0 20.283447l-20.283463 0z" fill-rule="evenodd"/><path fill="#ff0000" d="m173.20473 253.90552l20.283463 0l0 20.283447l-20.283463 0z" fill-rule="evenodd"/><path stroke="#ff0000" stroke-width="1.0" stroke-linejoin="round" stroke-linecap="butt" d="m173.20473 253.90552l20.283463 0l0 20.283447l-20.283463 0z" fill-rule="evenodd"/><path fill="#ff0000" d="m13.204724 293.90552l20.283466 0l0 20.283447l-20.283466 0z" fill-rule="evenodd"/><path stroke="#ff0000" stroke-width="1.0" stroke-linejoin="round" stroke-linecap="butt" d="m13.204724 293.90552l20.283466 0l0 20.283447l-20.283466 0z" fill-rule="evenodd"/><path fill="#ff0000" d="m45.204723 293.90552l20.283466 0l0 20.283447l-20.283466 0z" fill-rule="evenodd"/><path stroke="#ff0000" stroke-width="1.0" stroke-linejoin="round" stroke-linecap="butt" d="m45.204723 293.90552l20.283466 0l0 20.283447l-20.283466 0z" fill-rule="evenodd"/><path fill="#ff0000" d="m77.20473 293.90552l20.283463 0l0 20.283447l-20.283463 0z" fill-rule="evenodd"/><path stroke="#ff0000" stroke-width="1.0" stroke-linejoin="round" stroke-linecap="butt" d="m77.20473 293.90552l20.283463 0l0 20.283447l-20.283463 0z" fill-rule="evenodd"/><path fill="#ff0000" d="m109.20473 293.90552l20.283463 0l0 20.283447l-20.283463 0z" fill-rule="evenodd"/><path stroke="#ff0000" stroke-width="1.0" stroke-linejoin="round" stroke-linecap="butt" d="m109.20473 293.90552l20.283463 0l0 20.283447l-20.283463 0z" fill-rule="evenodd"/><path fill="#ff0000" d="m141.20473 293.90552l20.283463 0l0 20.283447l-20.283463 0z" fill-rule="evenodd"/><path stroke="#ff0000" stroke-width="1.0" stroke-linejoin="round" stroke-linecap="butt" d="m141.20473 293.90552l20.283463 0l0 20.283447l-20.283463 0z" fill-rule="evenodd"/><path fill="#ff0000" d="m173.20473 293.90552l20.283463 0l0 20.283447l-20.283463 0z" fill-rule="evenodd"/><path stroke="#ff0000" stroke-width="1.0" stroke-linejoin="round" stroke-linecap="butt" d="m173.20473 293.90552l20.283463 0l0 20.283447l-20.283463 0z" fill-rule="evenodd"/><path fill="#ff0000" d="m205.20473 293.90552l20.283463 0l0 20.283447l-20.283463 0z" fill-rule="evenodd"/><path stroke="#ff0000" stroke-width="1.0" stroke-linejoin="round" stroke-linecap="butt" d="m205.20473 293.90552l20.283463 0l0 20.283447l-20.283463 0z" fill-rule="evenodd"/><path fill="#ff0000" d="m13.204724 333.90552l20.283466 0l0 20.283447l-20.283466 0z" fill-rule="evenodd"/><path stroke="#ff0000" stroke-width="1.0" stroke-linejoin="round" stroke-linecap="butt" d="m13.204724 333.90552l20.283466 0l0 20.283447l-20.283466 0z" fill-rule="evenodd"/><path fill="#ff0000" d="m45.204723 333.90552l20.283466 0l0 20.283447l-20.283466 0z" fill-rule="evenodd"/><path stroke="#ff0000" stroke-width="1.0" stroke-linejoin="round" stroke-linecap="butt" d="m45.204723 333.90552l20.283466 0l0 20.283447l-20.283466 0z" fill-rule="evenodd"/><path fill="#ff0000" d="m77.20473 333.90552l20.283463 0l0 20.283447l-20.283463 0z" fill-rule="evenodd"/><path stroke="#ff0000" stroke-width="1.0" stroke-linejoin="round" stroke-linecap="butt" d="m77.20473 333.90552l20.283463 0l0 20.283447l-20.283463 0z" fill-rule="evenodd"/><path fill="#ff0000" d="m109.20473 333.90552l20.283463 0l0 20.283447l-20.283463 0z" fill-rule="evenodd"/><path stroke="#ff0000" stroke-width="1.0" stroke-linejoin="round" stroke-linecap="butt" d="m109.20473 333.90552l20.283463 0l0 20.283447l-20.283463 0z" fill-rule="evenodd"/><path fill="#ff0000" d="m141.20473 333.90552l20.283463 0l0 20.283447l-20.283463 0z" fill-rule="evenodd"/><path stroke="#ff0000" stroke-width="1.0" stroke-linejoin="round" stroke-linecap="butt" d="m141.20473 333.90552l20.283463 0l0 20.283447l-20.283463 0z" fill-rule="evenodd"/><path fill="#ff0000" d="m173.20473 333.90552l20.283463 0l0 20.283447l-20.283463 0z" fill-rule="evenodd"/><path stroke="#ff0000" stroke-width="1.0" stroke-linejoin="round" stroke-linecap="butt" d="m173.20473 333.90552l20.283463 0l0 20.283447l-20.283463 0z" fill-rule="evenodd"/><path fill="#ff0000" d="m205.20473 333.90552l20.283463 0l0 20.283447l-20.283463 0z" fill-rule="evenodd"/><path stroke="#ff0000" stroke-width="1.0" stroke-linejoin="round" stroke-linecap="butt" d="m205.20473 333.90552l20.283463 0l0 20.283447l-20.283463 0z" fill-rule="evenodd"/><path fill="#ff0000" d="m237.20473 333.90552l20.283463 0l0 20.283447l-20.283463 0z" fill-rule="evenodd"/><path stroke="#ff0000" stroke-width="1.0" stroke-linejoin="round" stroke-linecap="butt" d="m237.20473 333.90552l20.283463 0l0 20.283447l-20.283463 0z" fill-rule="evenodd"/><path fill="#ff0000" d="m13.204724 373.90552l20.283466 0l0 20.283447l-20.283466 0z" fill-rule="evenodd"/><path stroke="#ff0000" stroke-width="1.0" stroke-linejoin="round" stroke-linecap="butt" d="m13.204724 373.90552l20.283466 0l0 20.283447l-20.283466 0z" fill-rule="evenodd"/><path fill="#ff0000" d="m45.204723 373.90552l20.283466 0l0 20.283447l-20.283466 0z" fill-rule="evenodd"/><path stroke="#ff0000" stroke-width="1.0" stroke-linejoin="round" stroke-linecap="butt" d="m45.204723 373.90552l20.283466 0l0 20.283447l-20.283466 0z" fill-rule="evenodd"/><path fill="#ff0000" d="m77.20473 373.90552l20.283463 0l0 20.283447l-20.283463 0z" fill-rule="evenodd"/><path stroke="#ff0000" stroke-width="1.0" stroke-linejoin="round" stroke-linecap="butt" d="m77.20473 373.90552l20.283463 0l0 20.283447l-20.283463 0z" fill-rule="evenodd"/><path fill="#ff0000" d="m109.20473 373.90552l20.283463 0l0 20.283447l-20.283463 0z" fill-rule="evenodd"/><path stroke="#ff0000" stroke-width="1.0" stroke-linejoin="round" stroke-linecap="butt" d="m109.20473 373.90552l20.283463 0l0 20.283447l-20.283463 0z" fill-rule="evenodd"/><path fill="#ff0000" d="m141.20473 373.90552l20.283463 0l0 20.283447l-20.283463 0z" fill-rule="evenodd"/><path stroke="#ff0000" stroke-width="1.0" stroke-linejoin="round" stroke-linecap="butt" d="m141.20473 373.90552l20.283463 0l0 20.283447l-20.283463 0z" fill-rule="evenodd"/><path fill="#ff0000" d="m173.20473 373.90552l20.283463 0l0 20.283447l-20.283463 0z" fill-rule="evenodd"/><path stroke="#ff0000" stroke-width="1.0" stroke-linejoin="round" stroke-linecap="butt" d="m173.20473 373.90552l20.283463 0l0 20.283447l-20.283463 0z" fill-rule="evenodd"/><path fill="#ff0000" d="m205.20473 373.90552l20.283463 0l0 20.283447l-20.283463 0z" fill-rule="evenodd"/><path stroke="#ff0000" stroke-width="1.0" stroke-linejoin="round" stroke-linecap="butt" d="m205.20473 373.90552l20.283463 0l0 20.283447l-20.283463 0z" fill-rule="evenodd"/><path fill="#ff0000" d="m237.20473 373.90552l20.283463 0l0 20.283447l-20.283463 0z" fill-rule="evenodd"/><path stroke="#ff0000" stroke-width="1.0" stroke-linejoin="round" stroke-linecap="butt" d="m237.20473 373.90552l20.283463 0l0 20.283447l-20.283463 0z" fill-rule="evenodd"/><path fill="#ff0000" d="m269.2047 373.90552l20.283478 0l0 20.283447l-20.283478 0z" fill-rule="evenodd"/><path stroke="#ff0000" stroke-width="1.0" stroke-linejoin="round" stroke-linecap="butt" d="m269.2047 373.90552l20.283478 0l0 20.283447l-20.283478 0z" fill-rule="evenodd"/><path fill="#ff0000" d="m13.204724 413.90552l20.283466 0l0 20.283447l-20.283466 0z" fill-rule="evenodd"/><path stroke="#ff0000" stroke-width="1.0" stroke-linejoin="round" stroke-linecap="butt" d="m13.204724 413.90552l20.283466 0l0 20.283447l-20.283466 0z" fill-rule="evenodd"/><path fill="#ff0000" d="m45.204723 413.90552l20.283466 0l0 20.283447l-20.283466 0z" fill-rule="evenodd"/><path stroke="#ff0000" stroke-width="1.0" stroke-linejoin="round" stroke-linecap="butt" d="m45.204723 413.90552l20.283466 0l0 20.283447l-20.283466 0z" fill-rule="evenodd"/><path fill="#ff0000" d="m77.20473 413.90552l20.283463 0l0 20.283447l-20.283463 0z" fill-rule="evenodd"/><path stroke="#ff0000" stroke-width="1.0" stroke-linejoin="round" stroke-linecap="butt" d="m77.20473 413.90552l20.283463 0l0 20.283447l-20.283463 0z" fill-rule="evenodd"/><path fill="#ff0000" d="m109.20473 413.90552l20.283463 0l0 20.283447l-20.283463 0z" fill-rule="evenodd"/><path stroke="#ff0000" stroke-width="1.0" stroke-linejoin="round" stroke-linecap="butt" d="m109.20473 413.90552l20.283463 0l0 20.283447l-20.283463 0z" fill-rule="evenodd"/><path fill="#ff0000" d="m141.20473 413.90552l20.283463 0l0 20.283447l-20.283463 0z" fill-rule="evenodd"/><path stroke="#ff0000" stroke-width="1.0" stroke-linejoin="round" stroke-linecap="butt" d="m141.20473 413.90552l20.283463 0l0 20.283447l-20.283463 0z" fill-rule="evenodd"/><path fill="#ff0000" d="m173.20473 413.90552l20.283463 0l0 20.283447l-20.283463 0z" fill-rule="evenodd"/><path stroke="#ff0000" stroke-width="1.0" stroke-linejoin="round" stroke-linecap="butt" d="m173.20473 413.90552l20.283463 0l0 20.283447l-20.283463 0z" fill-rule="evenodd"/><path fill="#ff0000" d="m205.20473 413.90552l20.283463 0l0 20.283447l-20.283463 0z" fill-rule="evenodd"/><path stroke="#ff0000" stroke-width="1.0" stroke-linejoin="round" stroke-linecap="butt" d="m205.20473 413.90552l20.283463 0l0 20.283447l-20.283463 0z" fill-rule="evenodd"/><path fill="#ff0000" d="m237.20473 413.90552l20.283463 0l0 20.283447l-20.283463 0z" fill-rule="evenodd"/><path stroke="#ff0000" stroke-width="1.0" stroke-linejoin="round" stroke-linecap="butt" d="m237.20473 413.90552l20.283463 0l0 20.283447l-20.283463 0z" fill-rule="evenodd"/><path fill="#ff0000" d="m269.2047 413.90552l20.283478 0l0 20.283447l-20.283478 0z" fill-rule="evenodd"/><path stroke="#ff0000" stroke-width="1.0" stroke-linejoin="round" stroke-linecap="butt" d="m269.2047 413.90552l20.283478 0l0 20.283447l-20.283478 0z" fill-rule="evenodd"/><path fill="#ff0000" d="m301.2047 413.90552l20.283478 0l0 20.283447l-20.283478 0z" fill-rule="evenodd"/><path stroke="#ff0000" stroke-width="1.0" stroke-linejoin="round" stroke-linecap="butt" d="m301.2047 413.90552l20.283478 0l0 20.283447l-20.283478 0z" fill-rule="evenodd"/><path fill="#ff0000" d="m13.204724 453.90552l20.283466 0l0 20.283447l-20.283466 0z" fill-rule="evenodd"/><path stroke="#ff0000" stroke-width="1.0" stroke-linejoin="round" stroke-linecap="butt" d="m13.204724 453.90552l20.283466 0l0 20.283447l-20.283466 0z" fill-rule="evenodd"/><path fill="#ff0000" d="m45.204723 453.90552l20.283466 0l0 20.283447l-20.283466 0z" fill-rule="evenodd"/><path stroke="#ff0000" stroke-width="1.0" stroke-linejoin="round" stroke-linecap="butt" d="m45.204723 453.90552l20.283466 0l0 20.283447l-20.283466 0z" fill-rule="evenodd"/><path fill="#ff0000" d="m77.20473 453.90552l20.283463 0l0 20.283447l-20.283463 0z" fill-rule="evenodd"/><path stroke="#ff0000" stroke-width="1.0" stroke-linejoin="round" stroke-linecap="butt" d="m77.20473 453.90552l20.283463 0l0 20.283447l-20.283463 0z" fill-rule="evenodd"/><path fill="#ff0000" d="m109.20473 453.90552l20.283463 0l0 20.283447l-20.283463 0z" fill-rule="evenodd"/><path stroke="#ff0000" stroke-width="1.0" stroke-linejoin="round" stroke-linecap="butt" d="m109.20473 453.90552l20.283463 0l0 20.283447l-20.283463 0z" fill-rule="evenodd"/><path fill="#ff0000" d="m141.20473 453.90552l20.283463 0l0 20.283447l-20.283463 0z" fill-rule="evenodd"/><path stroke="#ff0000" stroke-width="1.0" stroke-linejoin="round" stroke-linecap="butt" d="m141.20473 453.90552l20.283463 0l0 20.283447l-20.283463 0z" fill-rule="evenodd"/><path fill="#ff0000" d="m173.20473 453.90552l20.283463 0l0 20.283447l-20.283463 0z" fill-rule="evenodd"/><path stroke="#ff0000" stroke-width="1.0" stroke-linejoin="round" stroke-linecap="butt" d="m173.20473 453.90552l20.283463 0l0 20.283447l-20.283463 0z" fill-rule="evenodd"/><path fill="#ff0000" d="m205.20473 453.90552l20.283463 0l0 20.283447l-20.283463 0z" fill-rule="evenodd"/><path stroke="#ff0000" stroke-width="1.0" stroke-linejoin="round" stroke-linecap="butt" d="m205.20473 453.90552l20.283463 0l0 20.283447l-20.283463 0z" fill-rule="evenodd"/><path fill="#ff0000" d="m237.20473 453.90552l20.283463 0l0 20.283447l-20.283463 0z" fill-rule="evenodd"/><path stroke="#ff0000" stroke-width="1.0" stroke-linejoin="round" stroke-linecap="butt" d="m237.20473 453.90552l20.283463 0l0 20.283447l-20.283463 0z" fill-rule="evenodd"/><path fill="#ff0000" d="m269.2047 453.90552l20.283478 0l0 20.283447l-20.283478 0z" fill-rule="evenodd"/><path stroke="#ff0000" stroke-width="1.0" stroke-linejoin="round" stroke-linecap="butt" d="m269.2047 453.90552l20.283478 0l0 20.283447l-20.283478 0z" fill-rule="evenodd"/><path fill="#ff0000" d="m301.2047 453.90552l20.283478 0l0 20.283447l-20.283478 0z" fill-rule="evenodd"/><path stroke="#ff0000" stroke-width="1.0" stroke-linejoin="round" stroke-linecap="butt" d="m301.2047 453.90552l20.283478 0l0 20.283447l-20.283478 0z" fill-rule="evenodd"/><path fill="#ff0000" d="m333.2047 453.90552l20.283478 0l0 20.283447l-20.283478 0z" fill-rule="evenodd"/><path stroke="#ff0000" stroke-width="1.0" stroke-linejoin="round" stroke-linecap="butt" d="m333.2047 453.90552l20.283478 0l0 20.283447l-20.283478 0z" fill-rule="evenodd"/><path fill="#ff0000" d="m13.204724 493.90552l20.283466 0l0 20.283447l-20.283466 0z" fill-rule="evenodd"/><path stroke="#ff0000" stroke-width="1.0" stroke-linejoin="round" stroke-linecap="butt" d="m13.204724 493.90552l20.283466 0l0 20.283447l-20.283466 0z" fill-rule="evenodd"/><path fill="#ff0000" d="m45.204723 493.90552l20.283466 0l0 20.283447l-20.283466 0z" fill-rule="evenodd"/><path stroke="#ff0000" stroke-width="1.0" stroke-linejoin="round" stroke-linecap="butt" d="m45.204723 493.90552l20.283466 0l0 20.283447l-20.283466 0z" fill-rule="evenodd"/><path fill="#ff0000" d="m77.20473 493.90552l20.283463 0l0 20.283447l-20.283463 0z" fill-rule="evenodd"/><path stroke="#ff0000" stroke-width="1.0" stroke-linejoin="round" stroke-linecap="butt" d="m77.20473 493.90552l20.283463 0l0 20.283447l-20.283463 0z" fill-rule="evenodd"/><path fill="#ff0000" d="m109.20473 493.90552l20.283463 0l0 20.283447l-20.283463 0z" fill-rule="evenodd"/><path stroke="#ff0000" stroke-width="1.0" stroke-linejoin="round" stroke-linecap="butt" d="m109.20473 493.90552l20.283463 0l0 20.283447l-20.283463 0z" fill-rule="evenodd"/><path fill="#ff0000" d="m141.20473 493.90552l20.283463 0l0 20.283447l-20.283463 0z" fill-rule="evenodd"/><path stroke="#ff0000" stroke-width="1.0" stroke-linejoin="round" stroke-linecap="butt" d="m141.20473 493.90552l20.283463 0l0 20.283447l-20.283463 0z" fill-rule="evenodd"/><path fill="#ff0000" d="m173.20473 493.90552l20.283463 0l0 20.283447l-20.283463 0z" fill-rule="evenodd"/><path stroke="#ff0000" stroke-width="1.0" stroke-linejoin="round" stroke-linecap="butt" d="m173.20473 493.90552l20.283463 0l0 20.283447l-20.283463 0z" fill-rule="evenodd"/><path fill="#ff0000" d="m205.20473 493.90552l20.283463 0l0 20.283447l-20.283463 0z" fill-rule="evenodd"/><path stroke="#ff0000" stroke-width="1.0" stroke-linejoin="round" stroke-linecap="butt" d="m205.20473 493.90552l20.283463 0l0 20.283447l-20.283463 0z" fill-rule="evenodd"/><path fill="#ff0000" d="m237.20473 493.90552l20.283463 0l0 20.283447l-20.283463 0z" fill-rule="evenodd"/><path stroke="#ff0000" stroke-width="1.0" stroke-linejoin="round" stroke-linecap="butt" d="m237.20473 493.90552l20.283463 0l0 20.283447l-20.283463 0z" fill-rule="evenodd"/><path fill="#ff0000" d="m269.2047 493.90552l20.283478 0l0 20.283447l-20.283478 0z" fill-rule="evenodd"/><path stroke="#ff0000" stroke-width="1.0" stroke-linejoin="round" stroke-linecap="butt" d="m269.2047 493.90552l20.283478 0l0 20.283447l-20.283478 0z" fill-rule="evenodd"/><path fill="#ff0000" d="m301.2047 493.90552l20.283478 0l0 20.283447l-20.283478 0z" fill-rule="evenodd"/><path stroke="#ff0000" stroke-width="1.0" stroke-linejoin="round" stroke-linecap="butt" d="m301.2047 493.90552l20.283478 0l0 20.283447l-20.283478 0z" fill-rule="evenodd"/><path fill="#ff0000" d="m333.2047 493.90552l20.283478 0l0 20.283447l-20.283478 0z" fill-rule="evenodd"/><path stroke="#ff0000" stroke-width="1.0" stroke-linejoin="round" stroke-linecap="butt" d="m333.2047 493.90552l20.283478 0l0 20.283447l-20.283478 0z" fill-rule="evenodd"/><path fill="#ff0000" d="m365.2047 493.90552l20.283478 0l0 20.283447l-20.283478 0z" fill-rule="evenodd"/><path stroke="#ff0000" stroke-width="1.0" stroke-linejoin="round" stroke-linecap="butt" d="m365.2047 493.90552l20.283478 0l0 20.283447l-20.283478 0z" fill-rule="evenodd"/><path fill="#000000" fill-opacity="0.0" d="m7.0 488.0l384.0 0l0 33.007874l-384.0 0z" fill-rule="evenodd"/><path stroke="#999999" stroke-width="3.0" stroke-linejoin="round" stroke-linecap="butt" d="m7.0 488.0l384.0 0l0 33.007874l-384.0 0z" fill-rule="evenodd"/><path fill="#000000" fill-opacity="0.0" d="m7.0 208.0l384.0 0l0 33.007874l-384.0 0z" fill-rule="evenodd"/><path stroke="#999999" stroke-width="3.0" stroke-linejoin="round" stroke-linecap="butt" d="m7.0 208.0l384.0 0l0 33.007874l-384.0 0z" fill-rule="evenodd"/><path fill="#ff0000" d="m13.204724 213.90552l20.283466 0l0 20.283463l-20.283466 0z" fill-rule="evenodd"/><path stroke="#ff0000" stroke-width="1.0" stroke-linejoin="round" stroke-linecap="butt" d="m13.204724 213.90552l20.283466 0l0 20.283463l-20.283466 0z" fill-rule="evenodd"/><path fill="#ff0000" d="m45.204723 213.90552l20.283466 0l0 20.283463l-20.283466 0z" fill-rule="evenodd"/><path stroke="#ff0000" stroke-width="1.0" stroke-linejoin="round" stroke-linecap="butt" d="m45.204723 213.90552l20.283466 0l0 20.283463l-20.283466 0z" fill-rule="evenodd"/><path fill="#ff0000" d="m77.20473 213.90552l20.283463 0l0 20.283463l-20.283463 0z" fill-rule="evenodd"/><path stroke="#ff0000" stroke-width="1.0" stroke-linejoin="round" stroke-linecap="butt" d="m77.20473 213.90552l20.283463 0l0 20.283463l-20.283463 0z" fill-rule="evenodd"/><path fill="#ff0000" d="m109.20473 213.90552l20.283463 0l0 20.283463l-20.283463 0z" fill-rule="evenodd"/><path stroke="#ff0000" stroke-width="1.0" stroke-linejoin="round" stroke-linecap="butt" d="m109.20473 213.90552l20.283463 0l0 20.283463l-20.283463 0z" fill-rule="evenodd"/><path fill="#ff0000" d="m141.20473 213.90552l20.283463 0l0 20.283463l-20.283463 0z" fill-rule="evenodd"/><path stroke="#ff0000" stroke-width="1.0" stroke-linejoin="round" stroke-linecap="butt" d="m141.20473 213.90552l20.283463 0l0 20.283463l-20.283463 0z" fill-rule="evenodd"/><path fill="#000000" fill-opacity="0.0" d="m7.0 168.0l384.0 0l0 33.007874l-384.0 0z" fill-rule="evenodd"/><path stroke="#999999" stroke-width="3.0" stroke-linejoin="round" stroke-linecap="butt" d="m7.0 168.0l384.0 0l0 33.007874l-384.0 0z" fill-rule="evenodd"/><path fill="#ff0000" d="m13.204724 173.90552l20.283466 0l0 20.283463l-20.283466 0z" fill-rule="evenodd"/><path stroke="#ff0000" stroke-width="1.0" stroke-linejoin="round" stroke-linecap="butt" d="m13.204724 173.90552l20.283466 0l0 20.283463l-20.283466 0z" fill-rule="evenodd"/><path fill="#ff0000" d="m45.204723 173.90552l20.283466 0l0 20.283463l-20.283466 0z" fill-rule="evenodd"/><path stroke="#ff0000" stroke-width="1.0" stroke-linejoin="round" stroke-linecap="butt" d="m45.204723 173.90552l20.283466 0l0 20.283463l-20.283466 0z" fill-rule="evenodd"/><path fill="#ff0000" d="m77.20473 173.90552l20.283463 0l0 20.283463l-20.283463 0z" fill-rule="evenodd"/><path stroke="#ff0000" stroke-width="1.0" stroke-linejoin="round" stroke-linecap="butt" d="m77.20473 173.90552l20.283463 0l0 20.283463l-20.283463 0z" fill-rule="evenodd"/><path fill="#ff0000" d="m109.20473 173.90552l20.283463 0l0 20.283463l-20.283463 0z" fill-rule="evenodd"/><path stroke="#ff0000" stroke-width="1.0" stroke-linejoin="round" stroke-linecap="butt" d="m109.20473 173.90552l20.283463 0l0 20.283463l-20.283463 0z" fill-rule="evenodd"/><path fill="#000000" fill-opacity="0.0" d="m7.0 128.0l384.0 0l0 33.007874l-384.0 0z" fill-rule="evenodd"/><path stroke="#999999" stroke-width="3.0" stroke-linejoin="round" stroke-linecap="butt" d="m7.0 128.0l384.0 0l0 33.007874l-384.0 0z" fill-rule="evenodd"/><path fill="#ff0000" d="m13.204724 133.90552l20.283466 0l0 20.283463l-20.283466 0z" fill-rule="evenodd"/><path stroke="#ff0000" stroke-width="1.0" stroke-linejoin="round" stroke-linecap="butt" d="m13.204724 133.90552l20.283466 0l0 20.283463l-20.283466 0z" fill-rule="evenodd"/><path fill="#ff0000" d="m45.204723 133.90552l20.283466 0l0 20.283463l-20.283466 0z" fill-rule="evenodd"/><path stroke="#ff0000" stroke-width="1.0" stroke-linejoin="round" stroke-linecap="butt" d="m45.204723 133.90552l20.283466 0l0 20.283463l-20.283466 0z" fill-rule="evenodd"/><path fill="#ff0000" d="m77.20473 133.90552l20.283463 0l0 20.283463l-20.283463 0z" fill-rule="evenodd"/><path stroke="#ff0000" stroke-width="1.0" stroke-linejoin="round" stroke-linecap="butt" d="m77.20473 133.90552l20.283463 0l0 20.283463l-20.283463 0z" fill-rule="evenodd"/><path fill="#000000" fill-opacity="0.0" d="m7.0 88.0l384.0 0l0 33.007874l-384.0 0z" fill-rule="evenodd"/><path stroke="#999999" stroke-width="3.0" stroke-linejoin="round" stroke-linecap="butt" d="m7.0 88.0l384.0 0l0 33.007874l-384.0 0z" fill-rule="evenodd"/><path fill="#ff0000" d="m13.204724 93.90551l20.283466 0l0 20.28347l-20.283466 0z" fill-rule="evenodd"/><path stroke="#ff0000" stroke-width="1.0" stroke-linejoin="round" stroke-linecap="butt" d="m13.204724 93.90551l20.283466 0l0 20.28347l-20.283466 0z" fill-rule="evenodd"/><path fill="#ff0000" d="m45.204723 93.90551l20.283466 0l0 20.28347l-20.283466 0z" fill-rule="evenodd"/><path stroke="#ff0000" stroke-width="1.0" stroke-linejoin="round" stroke-linecap="butt" d="m45.204723 93.90551l20.283466 0l0 20.28347l-20.283466 0z" fill-rule="evenodd"/><path fill="#000000" fill-opacity="0.0" d="m7.0 48.0l384.0 0l0 33.007874l-384.0 0z" fill-rule="evenodd"/><path stroke="#999999" stroke-width="3.0" stroke-linejoin="round" stroke-linecap="butt" d="m7.0 48.0l384.0 0l0 33.007874l-384.0 0z" fill-rule="evenodd"/><path fill="#ff0000" d="m13.204724 53.90551l20.283466 0l0 20.28347l-20.283466 0z" fill-rule="evenodd"/><path stroke="#ff0000" stroke-width="1.0" stroke-linejoin="round" stroke-linecap="butt" d="m13.204724 53.90551l20.283466 0l0 20.28347l-20.283466 0z" fill-rule="evenodd"/><path fill="#000000" fill-opacity="0.0" d="m7.0 8.0l384.0 0l0 33.007874l-384.0 0z" fill-rule="evenodd"/><path stroke="#999999" stroke-width="3.0" stroke-linejoin="round" stroke-linecap="butt" d="m7.0 8.0l384.0 0l0 33.007874l-384.0 0z" fill-rule="evenodd"/></g></svg>